<?xml version="1.0" encoding="UTF-8"?>
<svg version="1.1" xmlns="http://www.w3.org/2000/svg" width="2000" height="2000">
<path d="M0 0 C660 0 1320 0 2000 0 C2000 660 2000 1320 2000 2000 C1340 2000 680 2000 0 2000 C0 1340 0 680 0 0 Z " fill="#FEFEFE" transform="translate(0,0)"/>
<path d="M0 0 C0.8045462 -0.00012085 1.60909241 -0.0002417 2.4380188 -0.00036621 C16.28267074 0.02909669 29.55031084 1.19018548 43.0625 4.375 C44.07328613 4.60727295 44.07328613 4.60727295 45.10449219 4.84423828 C49.17069447 5.80998806 53.10819482 7.02724469 57.0625 8.375 C57.77680176 8.61589355 58.49110352 8.85678711 59.22705078 9.10498047 C84.99429639 17.88767971 107.88619454 30.937344 127.921875 49.421875 C129.65591258 51.00402608 131.40949382 52.48446881 133.25 53.9375 C136.92946619 57.12637069 139.95817255 60.63137691 143.0625 64.375 C143.49868652 64.89352539 143.93487305 65.41205078 144.38427734 65.94628906 C152.18644794 75.25386321 158.95919854 84.87721618 165.0625 95.375 C165.59568848 96.27871338 165.59568848 96.27871338 166.13964844 97.20068359 C174.80711541 112.03303905 181.15549547 128.66557885 185.0625 145.375 C185.33320312 146.43992676 185.33320312 146.43992676 185.609375 147.52636719 C189.05308636 161.46990794 189.46287945 175.34113831 189.5 189.625 C189.50608276 190.50893433 189.51216553 191.39286865 189.51843262 192.30358887 C189.7218914 237.54485062 172.41733531 278.63228445 144.0625 313.375 C143.36306778 314.03481369 142.66363556 314.69462738 141.94300842 315.37443542 C139.10491821 319.90293041 139.51516699 324.09460653 139.56420898 329.3371582 C139.55869019 330.44360184 139.55317139 331.55004547 139.54748535 332.6900177 C139.53816261 335.09243814 139.53806239 337.494908 139.54607964 339.89733315 C139.55871483 343.71233806 139.54741002 347.52661979 139.53004456 351.34159851 C139.50057148 358.76923002 139.49771937 366.1966519 139.49969482 373.62432098 C139.50118258 383.68249383 139.48418641 393.74044269 139.44355965 403.79854393 C139.43380094 407.53397328 139.44240251 411.26904926 139.45225525 415.00447083 C139.43770395 430.40078168 138.47604075 444.71396679 133.375 459.375 C133.12008789 460.11717773 132.86517578 460.85935547 132.60253906 461.62402344 C120.68826469 495.11779595 96.36095381 518.77006146 64.96289062 534.42163086 C59.23117204 537.12312843 53.48453227 538.693383 47.3125 540.0625 C46.39339844 540.27455078 45.47429687 540.48660156 44.52734375 540.70507812 C42.04166887 541.27523654 39.55503977 541.83567399 37.0625 542.375 C35.88288696 542.64763672 35.88288696 542.64763672 34.67944336 542.92578125 C18.37249924 545.72499547 -1.27187501 544.50576551 -16.9375 539.375 C-17.61232422 539.16069336 -18.28714844 538.94638672 -18.98242188 538.72558594 C-38.19294348 532.48262078 -54.24926135 522.20071687 -68.9375 508.375 C-69.82501953 507.58416016 -69.82501953 507.58416016 -70.73046875 506.77734375 C-90.03707836 488.84650205 -103.76072015 458.62624274 -104.9375 432.375 C-105.04964844 430.85132813 -105.04964844 430.85132813 -105.1640625 429.296875 C-105.54630251 420.64618007 -104.20630358 414.06075649 -98.2578125 407.53125 C-91.3041005 401.22655112 -84.9973344 399.75515094 -75.70703125 399.96484375 C-67.81934902 400.82308897 -62.19426423 404.27277231 -57.19140625 410.3359375 C-53.25384567 416.7390734 -52.3761005 422.51357857 -51.625 429.875 C-49.4148476 448.22139596 -41.88707848 465.04932937 -27.5625 477.25 C-23.40734929 480.47627947 -19.10499951 483.16981883 -14.5 485.6875 C-13.62432373 486.17549072 -13.62432373 486.17549072 -12.73095703 486.67333984 C-3.54435374 491.49849983 5.72010677 492.89175753 16 492.75 C17.05324463 492.74129883 18.10648926 492.73259766 19.19165039 492.72363281 C26.48429141 492.58581201 33.19314596 491.98760678 40.0625 489.375 C41.21105469 488.95734375 41.21105469 488.95734375 42.3828125 488.53125 C59.47110938 481.62448192 71.87922929 469.43302569 79.875 453 C85.11238851 440.15725478 86.64323636 428.64757957 86.453125 414.94140625 C86.44564018 413.32617401 86.43995789 411.71093253 86.43597412 410.09568787 C86.4208936 405.89852651 86.38177013 401.70194231 86.3371582 397.50500488 C86.29581967 393.20068158 86.2778818 388.89626259 86.2578125 384.59179688 C86.2152533 376.18593666 86.14722349 367.78054065 86.0625 359.375 C85.53864716 359.5999968 85.01479431 359.82499359 84.47506714 360.05680847 C65.290226 368.27543851 65.290226 368.27543851 57.1875 370.6875 C56.40632813 370.92694336 55.62515625 371.16638672 54.8203125 371.41308594 C48.30346651 373.37725046 41.7420489 375.05835815 35.0625 376.375 C33.90151291 376.61729591 33.90151291 376.61729591 32.71707153 376.86448669 C26.1837373 378.15822691 19.95621258 378.68238527 13.3046875 378.67578125 C12.31735626 378.68006638 11.33002502 378.6843515 10.31277466 378.68876648 C8.23717001 378.69446807 6.16154539 378.69504115 4.0859375 378.69067383 C0.96578527 378.68752851 -2.15340294 378.710976 -5.2734375 378.73632812 C-17.16895608 378.77434053 -28.32939395 377.99554034 -39.9375 375.375 C-40.87239258 375.17092529 -41.80728516 374.96685059 -42.77050781 374.7565918 C-45.02877974 374.2366609 -47.26366851 373.66928049 -49.5 373.0625 C-50.28608643 372.85085205 -51.07217285 372.6392041 -51.88208008 372.42114258 C-65.64826763 368.6074522 -78.35285819 363.08851724 -90.9375 356.375 C-91.54867676 356.05273438 -92.15985352 355.73046875 -92.78955078 355.3984375 C-114.46313999 343.87977059 -133.89105209 326.65782645 -148.9375 307.375 C-149.5857373 306.54935547 -149.5857373 306.54935547 -150.24707031 305.70703125 C-165.26698217 286.43129721 -175.8174656 264.63205577 -182.8125 241.25 C-183.08666748 240.34620605 -183.36083496 239.44241211 -183.64331055 238.51123047 C-188.22309695 222.38458119 -189.48961738 206.25356058 -189.375 189.5625 C-189.37262329 188.64600677 -189.37024658 187.72951355 -189.36779785 186.7852478 C-189.31173398 172.94726765 -188.45539855 159.81287785 -184.9375 146.375 C-184.61950461 145.01760116 -184.30429581 143.65954579 -183.9921875 142.30078125 C-177.40388645 115.36625637 -164.4376876 90.76411818 -146.9375 69.375 C-146.47085938 68.80007813 -146.00421875 68.22515625 -145.5234375 67.6328125 C-120.10266194 36.50255793 -84.25896619 14.54569903 -45.25 5.0625 C-44.25363525 4.81999512 -43.25727051 4.57749023 -42.23071289 4.32763672 C-28.15589276 1.07792301 -14.38530077 -0.03344684 0 0 Z " fill="#000000" transform="translate(999.9375,607.625)"/>
<path d="M0 0 C3.86160791 0.55734457 7.2924796 1.34145676 10.91625977 2.78173828 C12.30283531 3.32702682 12.30283531 3.32702682 13.71742249 3.8833313 C15.18954445 4.47088699 15.18954445 4.47088699 16.69140625 5.0703125 C18.79086249 5.89231832 20.89047668 6.7139208 22.99023438 7.53515625 C26.28615314 8.83166094 29.58038572 10.13210679 32.87182617 11.43994141 C36.05740135 12.70296152 39.24882795 13.95012123 42.44140625 15.1953125 C43.91656456 15.78894089 43.91656456 15.78894089 45.42152405 16.39456177 C46.34275558 16.75178314 47.26398712 17.10900452 48.21313477 17.47705078 C49.01888443 17.79602325 49.82463409 18.11499573 50.65480042 18.44363403 C54.78930297 19.42448723 58.49483229 17.91579992 62.43359375 16.625 C63.24763672 16.36203125 64.06167969 16.0990625 64.90039062 15.828125 C66.58826712 15.2771938 68.27576949 14.72511503 69.96289062 14.171875 C70.77822266 13.90890625 71.59355469 13.6459375 72.43359375 13.375 C73.16634521 13.13523437 73.89909668 12.89546875 74.65405273 12.6484375 C80.01214792 11.16741962 85.29401349 10.81154454 90.828125 10.7265625 C91.57070053 10.71417038 92.31327606 10.70177826 93.07835388 10.68901062 C95.4689484 10.65676663 97.85922472 10.63784156 100.25 10.625 C101.4670311 10.61815689 101.4670311 10.61815689 102.70864868 10.61117554 C114.8730357 10.58660285 125.5922869 11.47717728 137 16 C144.32741535 18.63111798 148.29794252 19.15654618 155.60327148 16.34179688 C156.48446152 16.00474731 157.36565155 15.66769775 158.27354431 15.32043457 C159.21323563 14.95687866 160.15292694 14.59332275 161.12109375 14.21875 C163.12822691 13.45174885 165.13538927 12.68482412 167.14257812 11.91796875 C170.29440266 10.70835625 173.44551097 9.496915 176.59594727 8.28369141 C179.64419696 7.11145256 182.69499516 5.94604962 185.74609375 4.78125 C186.68376083 4.41769409 187.62142792 4.05413818 188.58750916 3.67956543 C189.47185135 3.34251587 190.35619354 3.00546631 191.26733398 2.65820312 C192.03834946 2.36143677 192.80936493 2.06467041 193.60374451 1.75891113 C196.37802766 0.88027596 199.12395782 0.4215484 202 0 C201.9969838 0.85618423 201.99396759 1.71236847 201.99085999 2.59449768 C201.96846317 10.72818038 201.98011544 18.86098728 202.02846622 26.99456882 C202.05215552 31.17460722 202.06342526 35.35385498 202.04467773 39.53393555 C202.02701346 43.58045597 202.04410555 47.62556814 202.08367729 51.67191887 C202.09285507 53.20296754 202.09024079 54.73414138 202.07469368 56.26513863 C201.98198072 66.39247196 203.53670937 73.86843269 208.33033752 82.84439087 C210.3857199 86.72899839 211.71877707 90.59143613 212.875 94.8125 C213.07351563 95.47185547 213.27203125 96.13121094 213.4765625 96.81054688 C216.35111542 106.86177077 216.18218697 117.18615306 216.1875 127.5625 C216.19974609 128.82513672 216.21199219 130.08777344 216.22460938 131.38867188 C216.23531828 138.22452006 215.91849259 144.43150959 214 151 C213.79109131 151.75240967 213.58218262 152.50481934 213.36694336 153.2800293 C212.7249827 155.54803544 212.0553866 157.80575257 211.375 160.0625 C211.14554688 160.83271484 210.91609375 161.60292969 210.6796875 162.39648438 C210.12256886 164.26515315 209.56169058 166.13270039 209 168 C204.91902244 166.49247471 201.28379688 164.51403833 197.5 162.375 C180.16374239 152.90579852 159.25709291 145.06591057 139.62890625 142.36328125 C137.00936746 142.00129446 134.45978186 141.49280862 131.875 140.9375 C89.32416009 132.36841959 35.78320864 141.63734649 -0.80224609 165.15869141 C-1.33543457 165.52526855 -1.86862305 165.8918457 -2.41796875 166.26953125 C-5 168 -5 168 -7 168 C-7.98850692 164.98214387 -8.96407193 161.96025033 -9.9375 158.9375 C-10.21529297 158.08994141 -10.49308594 157.24238281 -10.77929688 156.36914062 C-13.83918726 146.82080798 -14.18239854 137.92105677 -14.1875 127.9375 C-14.19974609 126.70322266 -14.21199219 125.46894531 -14.22460938 124.19726562 C-14.24315334 112.384763 -13.17507452 100.9839555 -9.1875 89.8125 C-8.83461914 88.75772461 -8.83461914 88.75772461 -8.47460938 87.68164062 C-7.40709378 84.57996145 -6.33547008 81.61558672 -4.76211548 78.72848511 C-0.38528189 70.52065046 -0.2656274 62.6802103 -0.29296875 53.61328125 C-0.27982624 52.05956608 -0.26451426 50.5058679 -0.24714661 48.95219421 C-0.20758131 44.89981934 -0.19712478 40.84789429 -0.19311523 36.79534912 C-0.18372951 32.6453308 -0.14628256 28.49557091 -0.11132812 24.34570312 C-0.04704297 16.23046356 -0.01356503 8.11548226 0 0 Z " fill="#000000" transform="translate(899,452)"/>
<path d="M0 0 C8.52297515 6.89632383 14.65209558 17.31436683 17 28 C18.04975802 41.3450488 16.24089046 52.46769377 9 64 C7.98305054 64.9132605 7.98305054 64.9132605 6.94555664 65.8449707 C3.46795609 69.03805736 1.15653204 71.32222096 0.70605469 76.15063477 C1.12928005 80.2748368 1.86204848 84.25365416 2.6875 88.3125 C2.98092684 89.93551979 3.26944595 91.55943254 3.55371094 93.18408203 C4.23837415 97.05800667 4.95043107 100.92588216 5.67529297 104.79248047 C8.07685289 117.71880134 10.22411623 130.6916438 12.4301672 143.65243244 C13.30030454 148.75875498 14.18005363 153.8632957 15.06928921 158.96632671 C15.63760861 162.22890498 16.2025372 165.49206652 16.76721001 168.75527763 C17.03118603 170.27564223 17.29668503 171.79574342 17.56392097 173.31553841 C17.68962408 174.03085669 17.81532719 174.74617496 17.94483948 175.48316956 C18.05389398 176.10075418 18.16294847 176.71833879 18.27530766 177.3546381 C19.84113873 186.59590956 20.8987786 195.63961806 22 205 C-12.32 205 -46.64 205 -82 205 C-80.81933538 195.55468307 -79.6330886 186.19032534 -78.08203125 176.8125 C-77.90396439 175.72218475 -77.72589752 174.63186951 -77.54243469 173.5085144 C-76.96905529 170.00513133 -76.39097819 166.50254445 -75.8125 163 C-75.41060536 160.55225253 -75.00875033 158.10449855 -74.60693359 155.65673828 C-72.33880153 141.88063027 -70.00021532 128.11887708 -67.56478882 114.37139893 C-67.13055946 111.90655749 -66.70326132 109.44062146 -66.27856445 106.97412109 C-66.01137708 105.42543043 -65.7440476 103.87676427 -65.4765625 102.328125 C-65.35071274 101.59884796 -65.22486298 100.86957092 -65.09519958 100.11819458 C-64.3418361 95.80368739 -63.49629258 91.51916499 -62.5859375 87.234375 C-60.49816934 78.43514953 -60.49816934 78.43514953 -62.62109375 69.9921875 C-64.88659824 67.45734763 -64.88659824 67.45734763 -67.49609375 65.32421875 C-74.64689922 58.68657561 -76.61619457 48.76337327 -77.23828125 39.421875 C-77.5190986 25.52880598 -73.40414896 13.61549134 -63.8125 3.3125 C-45.38578695 -13.8182684 -20.23956876 -14.60768876 0 0 Z " fill="#FDFDFD" transform="translate(1030,690)"/>
<path d="M0 0 C10.16893801 7.98267567 16.43506774 17.44712368 20.25195312 29.73193359 C16.12675089 29.95621271 12.00395255 30.11851859 7.87402344 30.22631836 C6.47300357 30.27128897 5.07239926 30.33249691 3.67285156 30.41088867 C-8.00463887 31.04806985 -8.00463887 31.04806985 -12.31518555 27.79394531 C-14.26880919 25.51928855 -15.9942437 23.16092645 -17.74804688 20.73193359 C-20.45124134 18.77438315 -20.45124134 18.77438315 -23.06054688 17.73193359 C-24.29224609 17.17505859 -24.29224609 17.17505859 -25.54882812 16.60693359 C-33.98872616 13.2489635 -44.84782175 13.2092359 -53.49414062 15.89599609 C-63.0500169 20.54866994 -70.32226253 27.87253664 -73.90429688 38.00146484 C-74.83471663 42.11512627 -75.09376937 45.84511084 -75.06054688 50.04443359 C-75.05490723 50.79208984 -75.04926758 51.53974609 -75.04345703 52.31005859 C-74.80799174 63.07152197 -71.5371368 71.63675386 -64.04882812 79.52099609 C-55.85168012 86.99974237 -46.52872627 88.07661164 -35.80273438 87.94287109 C-27.42473386 87.36433909 -20.06634921 84.28854336 -13.74804688 78.73193359 C-10.13540831 74.3174655 -8.56861127 70.19362677 -6.74804688 64.73193359 C-19.61804687 64.73193359 -32.48804688 64.73193359 -45.74804688 64.73193359 C-45.74804688 57.47193359 -45.74804688 50.21193359 -45.74804688 42.73193359 C-22.97804688 42.73193359 -0.20804688 42.73193359 23.25195312 42.73193359 C23.25195312 63.81193359 23.25195312 63.81193359 20.25195312 71.73193359 C19.8884375 72.72708984 19.52492188 73.72224609 19.15039062 74.74755859 C12.89847306 90.80086952 2.948408 101.73784882 -12.62304688 109.04052734 C-21.12479604 112.67230232 -28.74405686 114.24307889 -37.99804688 114.10693359 C-39.51192993 114.0906189 -39.51192993 114.0906189 -41.05639648 114.07397461 C-59.04824867 113.69196669 -74.36290314 108.3281354 -87.19335938 95.47802734 C-99.88591542 81.83449997 -104.54616092 64.42720104 -104.06054688 46.14990234 C-103.22650691 30.36917117 -96.68695773 16.11207783 -85.74804688 4.73193359 C-61.97561501 -16.1146605 -25.91732486 -18.80091974 0 0 Z " fill="#030303" transform="translate(1161.748046875,1283.26806640625)"/>
<path d="M0 0 C1.16781006 0.00523682 2.33562012 0.01047363 3.53881836 0.01586914 C4.79887695 0.0190918 6.05893555 0.02231445 7.35717773 0.02563477 C8.6976732 0.03399136 10.03816799 0.04245632 11.37866211 0.05102539 C12.72306153 0.05603879 14.06746271 0.06060197 15.41186523 0.06469727 C18.71334151 0.07653051 22.01473014 0.09301568 25.31616211 0.11352539 C29.28335664 10.00797245 33.24849644 19.90324044 37.21126175 29.79946232 C39.052903 34.398425 40.89516003 38.99713867 42.73901367 43.59521484 C50.47716461 62.89328187 58.19477431 82.1960688 65.63824463 101.61012268 C68.26577677 108.48440389 68.26577677 108.48440389 71.13745117 115.25830078 C72.31616211 118.11352539 72.31616211 118.11352539 72.31616211 121.11352539 C62.74616211 121.11352539 53.17616211 121.11352539 43.31616211 121.11352539 C40.67616211 114.51352539 38.03616211 107.91352539 35.31616211 101.11352539 C11.06116211 100.61852539 11.06116211 100.61852539 -13.68383789 100.11352539 C-14.01383789 101.76352539 -14.34383789 103.41352539 -14.68383789 105.11352539 C-15.12115277 106.4540779 -15.59067658 107.78461388 -16.09399414 109.10180664 C-16.33512939 109.73900635 -16.57626465 110.37620605 -16.82470703 111.03271484 C-17.28091431 112.21740356 -17.28091431 112.21740356 -17.74633789 113.42602539 C-18.71571289 115.96290039 -19.68508789 118.49977539 -20.68383789 121.11352539 C-30.58383789 121.11352539 -40.48383789 121.11352539 -50.68383789 121.11352539 C-41.72964505 96.98695024 -32.29984765 73.05016675 -22.71142578 49.16992188 C-19.38356998 40.87901693 -16.07090562 32.58291366 -12.80883789 24.26586914 C-12.50425156 23.4896521 -12.19966522 22.71343506 -11.885849 21.91369629 C-10.44685584 18.24434775 -9.01145617 14.57363881 -7.58056641 10.90112305 C-7.07468941 9.60861762 -6.56875235 8.3161357 -6.06274414 7.02368164 C-5.62518799 5.90098877 -5.18763184 4.7782959 -4.73681641 3.62158203 C-3.27448886 0.13850972 -3.27448886 0.13850972 0 0 Z " fill="#020202" transform="translate(1263.683837890625,1273.886474609375)"/>
<path d="M0 0 C6.00659603 5.70246458 9.6730683 13.09321663 11 21.1875 C11 23.4975 11 25.8075 11 28.1875 C2.09 28.1875 -6.82 28.1875 -16 28.1875 C-16.99 24.8875 -17.98 21.5875 -19 18.1875 C-22.85959424 14.12476923 -26.97550282 12.38052301 -32.5234375 11.8515625 C-42.44416132 11.64086426 -42.44416132 11.64086426 -51 16.1875 C-53.69636396 20.23204594 -53.76334809 23.43964268 -53 28.1875 C-47.50483559 36.82275836 -33.96427905 38.80667713 -24.7421875 41.1640625 C-11.30641795 44.83856315 2.01054705 50.37737761 10.31640625 62.03515625 C14.79421494 70.13265698 14.28858362 80.89064936 12.15234375 89.671875 C8.84952601 98.49431697 3.5086405 104.51938926 -4.75 109 C-19.55394183 115.58942373 -38.80544922 117.09471815 -54.43359375 112.2265625 C-67.49359939 106.93894987 -75.13466884 100.04005452 -81 87.1875 C-82 83.1875 -82 83.1875 -82 73.1875 C-73.09 73.1875 -64.18 73.1875 -55 73.1875 C-54.34 76.1575 -53.68 79.1275 -53 82.1875 C-49.25530204 86.84307043 -44.88102346 89.99225602 -39 91.1875 C-30.58756605 91.99562358 -23.60070125 90.95171011 -16.9375 85.5 C-15.4054212 81.72087228 -15.26146494 78.18849579 -16 74.1875 C-21.62942147 66.01575916 -33.2822862 64.15273401 -42.3125 61.8125 C-56.71124024 57.91803346 -69.82664574 53.63190289 -77.95703125 40.3125 C-82.23274725 31.60092883 -82.70211161 20.979857 -79.97265625 11.69140625 C-75.2965263 1.52309043 -67.9144799 -4.65011996 -57.66796875 -8.84765625 C-38.5873742 -15.74795911 -16.07160939 -12.45283642 0 0 Z " fill="#030303" transform="translate(752,1282.8125)"/>
<path d="M0 0 C26.4 0 52.8 0 80 0 C80 7.59 80 15.18 80 23 C62.84 23 45.68 23 28 23 C28 31.25 28 39.5 28 48 C43.51 48 59.02 48 75 48 C75 55.59 75 63.18 75 71 C59.16 71 43.32 71 27 71 C27 79.91 27 88.82 27 98 C45.15 98 63.3 98 82 98 C82 105.59 82 113.18 82 121 C54.94 121 27.88 121 0 121 C0 81.07 0 41.14 0 0 Z " fill="#010101" transform="translate(941,1274)"/>
<path d="M0 0 C0.80824219 -0.020625 1.61648438 -0.04125 2.44921875 -0.0625 C13.57278972 -0.13369085 23.75888166 4.31802464 31.9375 11.8125 C41.26483689 21.58754906 43.22408478 32.49738938 43.02734375 45.36328125 C42.65608952 54.97710359 39.21007054 64.05278448 32.75 71.25 C20.82477659 81.93698136 9.52684166 84.13008611 -6.04296875 83.62890625 C-17.97514362 82.95149678 -26.35528241 77.55953362 -34.5 69.0625 C-42.67672766 59.04088392 -44.10706154 46.65290482 -43.25 34.25 C-41.00251789 22.80950371 -35.00978079 13.53736699 -25.5859375 6.71875 C-17.2531054 1.47937731 -9.69728449 0.06070288 0 0 Z " fill="#030303" transform="translate(938.25,1447.75)"/>
<path d="M0 0 C34.32 0 68.64 0 104 0 C104 8.25 104 16.5 104 25 C91.13 25 78.26 25 65 25 C65 56.68 65 88.36 65 121 C56.09 121 47.18 121 38 121 C38 89.32 38 57.64 38 25 C25.46 25 12.92 25 0 25 C0 16.75 0 8.5 0 0 Z " fill="#000000" transform="translate(798,1274)"/>
<path d="M0 0 C0.75410156 0.35191406 1.50820312 0.70382812 2.28515625 1.06640625 C11.98696924 5.97400114 17.64578642 13.09343353 22 23 C22.6640625 25.8359375 22.6640625 25.8359375 23 28 C5.76140855 29.22888969 5.76140855 29.22888969 1.6484375 26.359375 C0.25 24.25 0.25 24.25 -0.8828125 22.04296875 C-2.97047116 18.22532721 -6.83770748 16.64605081 -10.921875 15.42578125 C-18.38535521 13.89660955 -24.22993296 14.87171137 -30.87109375 18.58203125 C-35.64435904 21.76128868 -38.62293752 26.45154388 -40 32 C-40.82066433 41.39345023 -39.80294071 48.37327793 -34 56 C-27.85375747 61.67345465 -22.38765372 62.46518354 -14.2265625 62.30859375 C-7.78216806 61.69224126 -3.86000965 59.23108406 0.375 54.4375 C2.04257315 52.34604653 3.51250687 50.2312397 5 48 C6.97119141 47.65942383 6.97119141 47.65942383 9.3515625 47.70703125 C10.62773438 47.7215332 10.62773438 47.7215332 11.9296875 47.73632812 C12.81914063 47.76146484 13.70859375 47.78660156 14.625 47.8125 C15.97078125 47.83280273 15.97078125 47.83280273 17.34375 47.85351562 C19.56309789 47.88893075 21.78125188 47.93831539 24 48 C21.58319579 58.70374266 16.19863958 67.53448957 7.015625 73.7890625 C-1.41654998 78.85490406 -7.82789962 80.21491932 -17.625 80.3125 C-19.04619141 80.35600586 -19.04619141 80.35600586 -20.49609375 80.40039062 C-32.0754408 80.50335336 -40.53755762 76.00468604 -48.875 68.2578125 C-57.84990061 58.93474764 -60.43124801 47.35022912 -60.2109375 34.82421875 C-59.59331775 23.62700138 -54.28777229 13.29060247 -46.125 5.6015625 C-33.76528648 -3.71366276 -14.28113308 -7.15493388 0 0 Z " fill="#030303" transform="translate(1064,1451)"/>
<path d="M0 0 C5.94 0 11.88 0 18 0 C18 10.23 18 20.46 18 31 C32.40421012 31.69329756 32.40421012 31.69329756 38 25 C39.20294431 22.94686024 39.20294431 22.94686024 39.9140625 20.8203125 C40.20023438 20.05589844 40.48640625 19.29148437 40.78125 18.50390625 C41.0596875 17.71886719 41.338125 16.93382812 41.625 16.125 C42.19943706 14.56470474 42.77494417 13.00480298 43.3515625 11.4453125 C43.59729004 10.75969238 43.84301758 10.07407227 44.09619141 9.36767578 C45.3026111 6.20726029 46.66743008 3.10932982 48 0 C54.6 0 61.2 0 68 0 C65.42944266 7.71167201 62.61708451 15.16757909 59.5625 22.6875 C59.08490234 23.88439453 58.60730469 25.08128906 58.11523438 26.31445312 C57.64537109 27.47267578 57.17550781 28.63089844 56.69140625 29.82421875 C56.06020874 31.38789185 56.06020874 31.38789185 55.41625977 32.9831543 C53.8732914 36.26990832 52.08046697 39.03111291 50 42 C52.0258035 45.78651613 54.05220007 49.57271413 56.07910156 53.35864258 C56.76578046 54.64143698 57.45230878 55.924312 58.13867188 57.20727539 C62.39181822 65.15705258 66.67128194 73.0909871 71 81 C63.74 81 56.48 81 49 81 C48.02417969 79.10894531 47.04835938 77.21789063 46.04296875 75.26953125 C45.09015451 73.42582228 44.13677889 71.58240465 43.18334961 69.73901367 C42.52423398 68.4639263 41.86569661 67.18853983 41.20776367 65.9128418 C40.25854232 64.07260267 39.30720335 62.23347157 38.35546875 60.39453125 C37.78465576 59.28956299 37.21384277 58.18459473 36.62573242 57.04614258 C35.16909876 54.31684116 33.59168622 51.65281037 32 49 C25.07 48.505 25.07 48.505 18 48 C18 58.89 18 69.78 18 81 C12.06 81 6.12 81 0 81 C0 54.27 0 27.54 0 0 Z " fill="#020202" transform="translate(1115,1449)"/>
<path d="M0 0 C5.94 0 11.88 0 18 0 C18 21.12 18 42.24 18 64 C29.55 64 41.1 64 53 64 C53 69.61 53 75.22 53 81 C35.51 81 18.02 81 0 81 C0 54.27 0 27.54 0 0 Z " fill="#000000" transform="translate(821,1449)"/>
<path d="M0 0 C5.95281999 3.54879654 11.80213456 7.50900439 13.83984375 14.4453125 C15.37629618 23.78109011 15.56375274 32.04972324 9.9609375 39.98046875 C5.44070576 45.15087081 -0.12332223 47.50521093 -6.86328125 48.30859375 C-15.31871583 48.48410338 -20.93399184 47.23318567 -27.3046875 41.55078125 C-33.03818577 35.35928164 -34.40488466 28.17369387 -34.15625 19.96875 C-33.22457995 13.01705809 -30.26114662 7.75873996 -24.75 3.4375 C-17.11681138 -1.85648566 -8.875845 -2.51482275 0 0 Z " fill="#FCFCFC" transform="translate(947.75,1466.0625)"/>
<path d="M0 0 C3.41735393 3.11859416 4.73112603 6.78463067 6.35546875 11.02734375 C6.66196854 11.81266983 6.96846832 12.59799591 7.28425598 13.40711975 C7.9293007 15.06572823 8.57038155 16.725883 9.20776367 18.38745117 C10.18413523 20.92874221 11.17604782 23.46355736 12.16992188 25.99804688 C12.79521078 27.61161524 13.41959056 29.22553625 14.04296875 30.83984375 C14.3397905 31.5972435 14.63661224 32.35464325 14.94242859 33.13499451 C16.28831326 36.67001728 17 39.16911491 17 43 C6.11 43 -4.78 43 -16 43 C-14.1295264 36.76508799 -12.27134214 30.80722923 -9.86328125 24.8046875 C-9.57897751 24.08636749 -9.29467377 23.36804749 -9.00175476 22.62796021 C-8.10920708 20.37541376 -7.21097836 18.12518646 -6.3125 15.875 C-5.69948901 14.33088028 -5.08685579 12.78661053 -4.47460938 11.2421875 C-2.98742121 7.49304831 -1.49514024 3.74597463 0 0 Z " fill="#F9F9F9" transform="translate(1274,1309)"/>
</svg>
