<?xml version="1.0" encoding="UTF-8"?>
<svg version="1.1" xmlns="http://www.w3.org/2000/svg" width="2000" height="2000">
<path d="M0 0 C660 0 1320 0 2000 0 C2000 660 2000 1320 2000 2000 C1340 2000 680 2000 0 2000 C0 1340 0 680 0 0 Z " fill="#000000" transform="translate(0,0)"/>
<path d="M0 0 C0.77925842 -0.00012085 1.55851685 -0.0002417 2.36138916 -0.00036621 C16.39094983 0.03040743 29.90648608 1.2921572 43.625 4.375 C44.3159375 4.52984863 45.006875 4.68469727 45.71875 4.84423828 C49.77293341 5.79760485 53.68899287 7.01976118 57.625 8.375 C58.33785156 8.61589355 59.05070312 8.85678711 59.78515625 9.10498047 C85.55470236 17.88663089 108.4472665 30.93602651 128.484375 49.421875 C130.21841258 51.00402608 131.97199382 52.48446881 133.8125 53.9375 C137.48367955 57.11918895 140.49936859 60.66641353 143.625 64.375 C144.3778125 65.22835937 145.130625 66.08171875 145.90625 66.9609375 C165.14312301 89.18074335 178.93802832 116.77625505 185.625 145.375 C185.89570312 146.43992676 185.89570312 146.43992676 186.171875 147.52636719 C189.61558636 161.46990794 190.02537945 175.34113831 190.0625 189.625 C190.06858276 190.50893433 190.07466553 191.39286865 190.08093262 192.30358887 C190.28015135 236.60203014 173.65021926 278.36590136 145.625 312.375 C144.76016998 313.20021149 143.89533997 314.02542297 143.00430298 314.87564087 C139.41571934 319.22195495 139.94381813 324.05290351 140.01318359 329.45068359 C140.00751877 330.55727325 140.00185394 331.66386292 139.99601746 332.8039856 C139.98252041 336.46081468 140.00346982 340.11665161 140.0234375 343.7734375 C140.01793451 346.32728756 140.00980738 348.88113318 139.99917603 351.43496704 C139.97626977 358.16596511 139.98046065 364.89657043 139.99298096 371.62756348 C140.01272297 382.36427646 140.0011046 393.10080503 139.96712112 403.83748245 C139.96106718 407.56851317 139.97422125 411.29912318 139.98910522 415.03012085 C139.99592201 430.4249357 139.03812283 444.71516794 133.9375 459.375 C133.68258789 460.11717773 133.42767578 460.85935547 133.16503906 461.62402344 C121.25076469 495.11779595 96.92345381 518.77006146 65.52539062 534.42163086 C59.79367204 537.12312843 54.04703227 538.693383 47.875 540.0625 C46.95589844 540.27455078 46.03679687 540.48660156 45.08984375 540.70507812 C42.60416887 541.27523654 40.11753977 541.83567399 37.625 542.375 C36.44538696 542.64763672 36.44538696 542.64763672 35.24194336 542.92578125 C18.93499924 545.72499547 -0.70937501 544.50576551 -16.375 539.375 C-17.04982422 539.16069336 -17.72464844 538.94638672 -18.41992188 538.72558594 C-37.63044348 532.48262078 -53.68676135 522.20071687 -68.375 508.375 C-69.26251953 507.58416016 -69.26251953 507.58416016 -70.16796875 506.77734375 C-89.47457836 488.84650205 -103.19822015 458.62624274 -104.375 432.375 C-104.48714844 430.85132813 -104.48714844 430.85132813 -104.6015625 429.296875 C-104.94583785 421.50538022 -104.03016681 415.75347376 -99.375 409.375 C-94.59319852 404.18828791 -90.11241092 400.78077604 -82.95703125 400.00390625 C-73.77850992 399.84221209 -66.62828012 400.66940227 -59.5390625 407.01953125 C-53.24266223 413.82271495 -51.97241981 420.95701474 -51.0625 429.875 C-48.8523476 448.22139596 -41.32457848 465.04932937 -27 477.25 C-22.84484929 480.47627947 -18.54249951 483.16981883 -13.9375 485.6875 C-13.06182373 486.17549072 -13.06182373 486.17549072 -12.16845703 486.67333984 C-2.98185374 491.49849983 6.28260677 492.89175753 16.5625 492.75 C17.61574463 492.74129883 18.66898926 492.73259766 19.75415039 492.72363281 C27.04679141 492.58581201 33.75564596 491.98760678 40.625 489.375 C41.77355469 488.95734375 41.77355469 488.95734375 42.9453125 488.53125 C61.13175355 481.18063271 73.66417699 468.14817427 81.43359375 450.28515625 C81.82675781 449.32480469 82.21992187 448.36445312 82.625 447.375 C82.96660156 446.63121094 83.30820313 445.88742187 83.66015625 445.12109375 C87.07422913 435.40411709 86.88955515 425.58696135 86.8203125 415.4296875 C86.81657517 413.80730363 86.81373161 412.18491747 86.81173706 410.56253052 C86.80415724 406.32439777 86.78455836 402.08640548 86.7623291 397.84832764 C86.74174787 393.51088358 86.73270927 389.17341648 86.72265625 384.8359375 C86.70130625 376.34889439 86.66723991 367.86196475 86.625 359.375 C86.10114716 359.5999968 85.57729431 359.82499359 85.03756714 360.05680847 C65.852726 368.27543851 65.852726 368.27543851 57.75 370.6875 C56.96882813 370.92694336 56.18765625 371.16638672 55.3828125 371.41308594 C48.86596651 373.37725046 42.3045489 375.05835815 35.625 376.375 C34.46401291 376.61729591 34.46401291 376.61729591 33.27957153 376.86448669 C26.7462373 378.15822691 20.51871258 378.68238527 13.8671875 378.67578125 C12.87985626 378.68006638 11.89252502 378.6843515 10.87527466 378.68876648 C8.79967001 378.69446807 6.72404539 378.69504115 4.6484375 378.69067383 C1.52828527 378.68752851 -1.59090294 378.710976 -4.7109375 378.73632812 C-16.60645608 378.77434053 -27.76689395 377.99554034 -39.375 375.375 C-40.30989258 375.17092529 -41.24478516 374.96685059 -42.20800781 374.7565918 C-44.46627974 374.2366609 -46.70116851 373.66928049 -48.9375 373.0625 C-49.72358643 372.85085205 -50.50967285 372.6392041 -51.31958008 372.42114258 C-65.08576763 368.6074522 -77.79035819 363.08851724 -90.375 356.375 C-90.98617676 356.05273438 -91.59735352 355.73046875 -92.22705078 355.3984375 C-113.90063999 343.87977059 -133.32855209 326.65782645 -148.375 307.375 C-149.0232373 306.54935547 -149.0232373 306.54935547 -149.68457031 305.70703125 C-164.70448217 286.43129721 -175.2549656 264.63205577 -182.25 241.25 C-182.52416748 240.34620605 -182.79833496 239.44241211 -183.08081055 238.51123047 C-187.46203682 223.08376433 -188.86009057 207.69238997 -188.71118164 191.71142578 C-188.68732967 188.98049831 -188.69068782 186.25053862 -188.69726562 183.51953125 C-188.68263196 173.9646645 -188.28390331 164.77280391 -186.375 155.375 C-186.20347412 154.4989209 -186.03194824 153.6228418 -185.85522461 152.72021484 C-178.91216625 119.0060453 -163.83716259 87.96853596 -140.4296875 62.6171875 C-138.65810243 60.68393687 -136.97717659 58.71210666 -135.3125 56.6875 C-132.00356046 52.82408951 -128.28776897 49.61420937 -124.375 46.375 C-123.61533936 45.73087158 -123.61533936 45.73087158 -122.84033203 45.07373047 C-100.18809152 25.91050113 -73.52611726 12.07325609 -44.6875 5.0625 C-43.69113525 4.81999512 -42.69477051 4.57749023 -41.66821289 4.32763672 C-27.78922362 1.12313809 -14.18715228 -0.03411011 0 0 Z " fill="#FEFEFE" transform="translate(999.375,607.625)"/>
<path d="M0 0 C3.86160791 0.55734457 7.2924796 1.34145676 10.91625977 2.78173828 C12.30283531 3.32702682 12.30283531 3.32702682 13.71742249 3.8833313 C15.18954445 4.47088699 15.18954445 4.47088699 16.69140625 5.0703125 C18.79086249 5.89231832 20.89047668 6.7139208 22.99023438 7.53515625 C26.28615314 8.83166094 29.58038572 10.13210679 32.87182617 11.43994141 C36.05740135 12.70296152 39.24882795 13.95012123 42.44140625 15.1953125 C43.91656456 15.78894089 43.91656456 15.78894089 45.42152405 16.39456177 C46.34275558 16.75178314 47.26398712 17.10900452 48.21313477 17.47705078 C49.01888443 17.79602325 49.82463409 18.11499573 50.65480042 18.44363403 C54.78930297 19.42448723 58.49483229 17.91579992 62.43359375 16.625 C63.24763672 16.36203125 64.06167969 16.0990625 64.90039062 15.828125 C66.58826712 15.2771938 68.27576949 14.72511503 69.96289062 14.171875 C70.77822266 13.90890625 71.59355469 13.6459375 72.43359375 13.375 C73.16634521 13.13523437 73.89909668 12.89546875 74.65405273 12.6484375 C80.01214792 11.16741962 85.29401349 10.81154454 90.828125 10.7265625 C91.57070053 10.71417038 92.31327606 10.70177826 93.07835388 10.68901062 C95.4689484 10.65676663 97.85922472 10.63784156 100.25 10.625 C101.4670311 10.61815689 101.4670311 10.61815689 102.70864868 10.61117554 C114.8730357 10.58660285 125.5922869 11.47717728 137 16 C144.32741535 18.63111798 148.29794252 19.15654618 155.60327148 16.34179688 C156.48446152 16.00474731 157.36565155 15.66769775 158.27354431 15.32043457 C159.21323563 14.95687866 160.15292694 14.59332275 161.12109375 14.21875 C163.12822691 13.45174885 165.13538927 12.68482412 167.14257812 11.91796875 C170.29440266 10.70835625 173.44551097 9.496915 176.59594727 8.28369141 C179.64419696 7.11145256 182.69499516 5.94604962 185.74609375 4.78125 C186.68376083 4.41769409 187.62142792 4.05413818 188.58750916 3.67956543 C189.47185135 3.34251587 190.35619354 3.00546631 191.26733398 2.65820312 C192.03834946 2.36143677 192.80936493 2.06467041 193.60374451 1.75891113 C196.37802766 0.88027596 199.12395782 0.4215484 202 0 C201.9969838 0.84143555 201.99396759 1.68287109 201.99085999 2.54980469 C201.96844568 10.5507357 201.98015398 18.55077684 202.02846622 26.55160522 C202.05213679 30.66323764 202.06344497 34.77406711 202.04467773 38.88574219 C202.02698908 42.86743623 202.0441525 46.84770154 202.08367729 50.82922363 C202.09284184 52.33432566 202.09026393 53.8395551 202.07469368 55.34460449 C201.97882584 65.62564172 203.75798992 73.37011826 208.33033752 82.61184692 C210.301761 86.61234679 211.68605804 90.59131205 212.875 94.875 C213.17277344 95.85726562 213.17277344 95.85726562 213.4765625 96.859375 C216.36439171 106.88872779 216.18219659 117.204943 216.1875 127.5625 C216.19974609 128.82513672 216.21199219 130.08777344 216.22460938 131.38867188 C216.23531828 138.22452006 215.91849259 144.43150959 214 151 C213.79109131 151.75240967 213.58218262 152.50481934 213.36694336 153.2800293 C212.7249827 155.54803544 212.0553866 157.80575257 211.375 160.0625 C211.14554688 160.83271484 210.91609375 161.60292969 210.6796875 162.39648438 C210.12256886 164.26515315 209.56169058 166.13270039 209 168 C204.91902244 166.49247471 201.28379688 164.51403833 197.5 162.375 C180.16374239 152.90579852 159.25709291 145.06591057 139.62890625 142.36328125 C137.00936746 142.00129446 134.45978186 141.49280862 131.875 140.9375 C89.32416009 132.36841959 35.78320864 141.63734649 -0.80224609 165.15869141 C-1.33543457 165.52526855 -1.86862305 165.8918457 -2.41796875 166.26953125 C-5 168 -5 168 -7 168 C-7.98850692 164.98214387 -8.96407193 161.96025033 -9.9375 158.9375 C-10.21529297 158.08994141 -10.49308594 157.24238281 -10.77929688 156.36914062 C-13.83918726 146.82080798 -14.18239854 137.92105677 -14.1875 127.9375 C-14.19974609 126.70322266 -14.21199219 125.46894531 -14.22460938 124.19726562 C-14.24315334 112.384763 -13.17507452 100.9839555 -9.1875 89.8125 C-8.83461914 88.75772461 -8.83461914 88.75772461 -8.47460938 87.68164062 C-7.40709378 84.57996145 -6.33547008 81.61558672 -4.76211548 78.72848511 C-0.38528189 70.52065046 -0.2656274 62.6802103 -0.29296875 53.61328125 C-0.27982624 52.05956608 -0.26451426 50.5058679 -0.24714661 48.95219421 C-0.20758131 44.89981934 -0.19712478 40.84789429 -0.19311523 36.79534912 C-0.18372951 32.6453308 -0.14628256 28.49557091 -0.11132812 24.34570312 C-0.04704297 16.23046356 -0.01356503 8.11548226 0 0 Z " fill="#FEFEFE" transform="translate(899,452)"/>
<path d="M0 0 C8.52297515 6.89632383 14.65209558 17.31436683 17 28 C18.04975802 41.3450488 16.24089046 52.46769377 9 64 C7.98305054 64.9132605 7.98305054 64.9132605 6.94555664 65.8449707 C3.46795609 69.03805736 1.15653204 71.32222096 0.70605469 76.15063477 C1.12928005 80.2748368 1.86204848 84.25365416 2.6875 88.3125 C2.98092684 89.93551979 3.26944595 91.55943254 3.55371094 93.18408203 C4.23837415 97.05800667 4.95043107 100.92588216 5.67529297 104.79248047 C8.07685289 117.71880134 10.22411623 130.6916438 12.4301672 143.65243244 C13.30030454 148.75875498 14.18005363 153.8632957 15.06928921 158.96632671 C15.63760861 162.22890498 16.2025372 165.49206652 16.76721001 168.75527763 C17.03118603 170.27564223 17.29668503 171.79574342 17.56392097 173.31553841 C17.68962408 174.03085669 17.81532719 174.74617496 17.94483948 175.48316956 C18.05389398 176.10075418 18.16294847 176.71833879 18.27530766 177.3546381 C19.84113873 186.59590956 20.8987786 195.63961806 22 205 C-12.32 205 -46.64 205 -82 205 C-80.81933538 195.55468307 -79.6330886 186.19032534 -78.08203125 176.8125 C-77.90396439 175.72218475 -77.72589752 174.63186951 -77.54243469 173.5085144 C-76.96905529 170.00513133 -76.39097819 166.50254445 -75.8125 163 C-75.41060536 160.55225253 -75.00875033 158.10449855 -74.60693359 155.65673828 C-72.33880153 141.88063027 -70.00021532 128.11887708 -67.56478882 114.37139893 C-67.13055946 111.90655749 -66.70326132 109.44062146 -66.27856445 106.97412109 C-66.01137708 105.42543043 -65.7440476 103.87676427 -65.4765625 102.328125 C-65.35071274 101.59884796 -65.22486298 100.86957092 -65.09519958 100.11819458 C-64.3418361 95.80368739 -63.49629258 91.51916499 -62.5859375 87.234375 C-60.49816934 78.43514953 -60.49816934 78.43514953 -62.62109375 69.9921875 C-64.88659824 67.45734763 -64.88659824 67.45734763 -67.49609375 65.32421875 C-74.64689922 58.68657561 -76.61619457 48.76337327 -77.23828125 39.421875 C-77.5190986 25.52880598 -73.40414896 13.61549134 -63.8125 3.3125 C-45.38578695 -13.8182684 -20.23956876 -14.60768876 0 0 Z " fill="#010101" transform="translate(1030,690)"/>
<path d="M0 0 C10.18217661 8.06608377 16.50185053 17.42308725 20.34228516 29.78369141 C16.21708293 30.00797052 12.09428458 30.1702764 7.96435547 30.27807617 C6.5633356 30.32304678 5.16273129 30.38425472 3.76318359 30.46264648 C-7.89080321 31.09854519 -7.89080321 31.09854519 -12.28857422 27.82592773 C-14.40771484 25.40087891 -14.40771484 25.40087891 -16.11083984 22.97070312 C-19.40296449 18.3162125 -24.67718816 16.28678782 -30.16162109 15.10009766 C-40.92775925 13.73537592 -50.23667731 14.31633114 -59.78271484 19.47119141 C-67.30116462 25.51864014 -72.00663117 32.48853382 -74.65771484 41.78369141 C-75.77462468 54.69309109 -74.73301897 66.81935924 -66.15380859 77.17431641 C-60.37725263 83.38826172 -52.83382188 87.46703545 -44.33740234 87.98681641 C-31.56466797 88.14418069 -22.56960196 86.38652044 -13.15771484 77.34228516 C-9.47784131 73.32289949 -8.71734369 70.27603499 -6.65771484 64.78369141 C-19.52771484 64.78369141 -32.39771484 64.78369141 -45.65771484 64.78369141 C-45.65771484 57.52369141 -45.65771484 50.26369141 -45.65771484 42.78369141 C-22.88771484 42.78369141 -0.11771484 42.78369141 23.34228516 42.78369141 C23.34228516 62.97837294 20.34335618 82.2731755 5.84228516 97.28369141 C-6.4364027 109.20287708 -23.07156687 114.37695048 -39.84521484 114.28369141 C-41.03832275 114.27797119 -42.23143066 114.27225098 -43.46069336 114.26635742 C-52.73875454 114.07883893 -60.23691104 112.90006448 -68.65771484 108.78369141 C-70.24712891 108.02185547 -70.24712891 108.02185547 -71.86865234 107.24462891 C-87.22576259 99.08253757 -96.4961114 86.09136604 -101.65771484 69.78369141 C-106.14750322 53.33201603 -104.71690929 35.14302155 -96.90771484 19.90869141 C-87.44892582 4.19110168 -74.37157354 -6.19488649 -56.59521484 -11.02880859 C-37.30643679 -15.00540502 -16.10810322 -11.81893523 0 0 Z " fill="#FBFBFB" transform="translate(1161.65771484375,1283.21630859375)"/>
<path d="M0 0 C1.16781006 0.00523682 2.33562012 0.01047363 3.53881836 0.01586914 C4.79887695 0.0190918 6.05893555 0.02231445 7.35717773 0.02563477 C8.6976732 0.03399136 10.03816799 0.04245632 11.37866211 0.05102539 C12.72306153 0.05603879 14.06746271 0.06060197 15.41186523 0.06469727 C18.71334151 0.07653051 22.01473014 0.09301568 25.31616211 0.11352539 C36.66868516 28.40824372 47.92816927 56.73969415 59.17285156 85.07739258 C59.46219291 85.80653051 59.75153425 86.53566845 60.04964352 87.28690147 C61.41840312 90.73619331 62.78701561 94.18554332 64.15525818 97.63504028 C64.40374984 98.26116903 64.6522415 98.88729778 64.90826321 99.53240013 C65.61331522 101.30999737 66.31687699 103.08818547 67.02038574 104.86639404 C67.85481936 106.95743046 68.70056105 109.04400771 69.56018066 111.12481689 C69.92792603 112.01715027 70.29567139 112.90948364 70.67456055 113.82885742 C70.99406677 114.59183136 71.313573 115.3548053 71.64276123 116.14089966 C72.31616211 118.11352539 72.31616211 118.11352539 72.31616211 121.11352539 C62.74616211 121.11352539 53.17616211 121.11352539 43.31616211 121.11352539 C40.43511018 114.19900076 37.68494051 107.21986059 35.31616211 100.11352539 C19.14616211 100.11352539 2.97616211 100.11352539 -13.68383789 100.11352539 C-14.01383789 101.76352539 -14.34383789 103.41352539 -14.68383789 105.11352539 C-15.12115277 106.4540779 -15.59067658 107.78461388 -16.09399414 109.10180664 C-16.33512939 109.73900635 -16.57626465 110.37620605 -16.82470703 111.03271484 C-17.28091431 112.21740356 -17.28091431 112.21740356 -17.74633789 113.42602539 C-18.71571289 115.96290039 -19.68508789 118.49977539 -20.68383789 121.11352539 C-30.58383789 121.11352539 -40.48383789 121.11352539 -50.68383789 121.11352539 C-48.6348083 114.96643662 -46.51090234 108.95498548 -44.11352539 102.94946289 C-43.76358521 102.0669133 -43.41364502 101.18436371 -43.05310059 100.27507019 C-41.89073592 97.34526674 -40.72485921 94.41687527 -39.55883789 91.48852539 C-38.73522817 89.41560869 -37.91182845 87.34260854 -37.08862305 85.26953125 C-35.758227 81.9195972 -34.42750947 78.56979274 -33.09579468 75.22038269 C-29.64441697 66.53882314 -26.20544539 57.85241663 -22.77065659 49.16428375 C-21.05055572 44.81425986 -19.32887621 40.46486056 -17.60713387 36.11548615 C-16.19058495 32.53682623 -14.77487735 28.9578382 -13.36102295 25.37811279 C-12.02138351 21.98651722 -10.67925471 18.59591729 -9.33525085 15.20604897 C-8.59619282 13.34007045 -7.85977733 11.473046 -7.12341309 9.60600281 C-6.68364136 8.49803848 -6.24386963 7.39007416 -5.79077148 6.24853516 C-5.40617767 5.27634537 -5.02158386 4.30415558 -4.62533569 3.30250549 C-3.26429033 0.13807832 -3.26429033 0.13807832 0 0 Z " fill="#FCFCFC" transform="translate(1263.683837890625,1273.886474609375)"/>
<path d="M0 0 C7.62901607 6.11180087 12.10684976 13.58846089 13.73046875 23.21875 C13.96744517 25.64980122 13.95703125 28.10039472 13.95703125 30.54296875 C5.04703125 30.54296875 -3.86296875 30.54296875 -13.04296875 30.54296875 C-14.03296875 26.58296875 -14.03296875 26.58296875 -15.04296875 22.54296875 C-17.22563605 18.90518992 -19.62733484 16.56481326 -23.66015625 15.0546875 C-30.96625783 13.48567224 -39.36469608 12.91253265 -45.91796875 16.91796875 C-47.95285592 18.4243138 -48.90610121 19.26923366 -50.04296875 21.54296875 C-50.65775895 26.01337178 -50.75305871 29.4271131 -48.29296875 33.29296875 C-41.43367351 38.04171161 -33.82010765 40.42701461 -25.79296875 42.48046875 C-10.59253897 46.37040402 3.61419711 51.08455703 12.95703125 64.54296875 C17.48082693 73.27198296 17.72698047 83.76866631 14.85546875 93.13671875 C9.94745816 103.53015294 3.37840842 109.06948369 -7.04296875 113.54296875 C-7.82414063 113.89746094 -8.6053125 114.25195312 -9.41015625 114.6171875 C-21.76178358 118.96041551 -41.48005745 118.93520498 -53.61328125 113.8046875 C-54.41507813 113.38832031 -55.216875 112.97195313 -56.04296875 112.54296875 C-56.92726563 112.09566406 -57.8115625 111.64835937 -58.72265625 111.1875 C-69.82967457 105.04073763 -75.0572514 97.5001208 -79.04296875 85.54296875 C-79.04296875 82.24296875 -79.04296875 78.94296875 -79.04296875 75.54296875 C-70.13296875 75.54296875 -61.22296875 75.54296875 -52.04296875 75.54296875 C-51.05296875 78.84296875 -50.06296875 82.14296875 -49.04296875 85.54296875 C-45.79926483 89.75101708 -43.10225742 91.18473064 -38.04296875 92.54296875 C-35.32834613 92.75368038 -32.75227067 92.86820043 -30.04296875 92.85546875 C-29.3571875 92.87158203 -28.67140625 92.88769531 -27.96484375 92.90429688 C-22.39450714 92.90961208 -18.38155589 91.56974427 -14.16796875 87.91796875 C-12.38332025 84.15037748 -12.28999722 80.62217374 -13.04296875 76.54296875 C-18.67259519 68.37093037 -30.32514815 66.50873455 -39.35546875 64.16796875 C-66.36872461 56.84872914 -66.36872461 56.84872914 -73.60546875 44.98046875 C-78.45635725 35.49918668 -79.78701866 25.18106684 -77.39453125 14.703125 C-73.48949679 5.20754976 -66.0946109 -1.03485493 -57.04296875 -5.45703125 C-39.04460616 -12.75906108 -16.06470667 -11.45723822 0 0 Z " fill="#FBFBFB" transform="translate(749.04296875,1280.45703125)"/>
<path d="M0 0 C26.4 0 52.8 0 80 0 C80 7.59 80 15.18 80 23 C62.84 23 45.68 23 28 23 C28 31.25 28 39.5 28 48 C43.51 48 59.02 48 75 48 C75 55.59 75 63.18 75 71 C59.16 71 43.32 71 27 71 C27 79.91 27 88.82 27 98 C45.15 98 63.3 98 82 98 C82 105.59 82 113.18 82 121 C54.94 121 27.88 121 0 121 C0 81.07 0 41.14 0 0 Z " fill="#FDFDFD" transform="translate(941,1274)"/>
<path d="M0 0 C10.26692654 5.26544676 16.74905388 13.05743557 20.96875 23.8046875 C23.76660526 35.0080143 23.44296283 48.21612999 17.88671875 58.48046875 C17.46261719 59.27582031 17.03851562 60.07117187 16.6015625 60.890625 C10.67969674 70.77139823 1.6479728 75.96599712 -9.11328125 79.48046875 C-21.18970635 81.96214249 -33.01545952 80.95409054 -43.90625 74.9375 C-54.5488649 67.90145959 -59.87247827 59.63636088 -63.7265625 47.55859375 C-65.95398983 35.58898424 -63.72709092 23.97873142 -57.36328125 13.66796875 C-44.2213653 -4.45542157 -20.05581073 -8.47328335 0 0 Z " fill="#FAFAFA" transform="translate(959.11328125,1451.51953125)"/>
<path d="M0 0 C34.32 0 68.64 0 104 0 C104 8.58 104 17.16 104 26 C91.46 26 78.92 26 66 26 C66 57.35 66 88.7 66 121 C56.76 121 47.52 121 38 121 C38 89.32 38 57.64 38 25 C25.46 25 12.92 25 0 25 C0 16.75 0 8.5 0 0 Z " fill="#FCFCFC" transform="translate(798,1274)"/>
<path d="M0 0 C1.2384668 -0.01836914 1.2384668 -0.01836914 2.50195312 -0.03710938 C15.07639648 -0.06683619 24.3293443 4.0796728 33.47265625 12.6171875 C38.68916837 18.347513 41.81215188 24.51067116 42.8125 32.1875 C39.74622294 32.40415549 36.69522762 32.56209318 33.625 32.6875 C32.32852539 32.78804687 32.32852539 32.78804687 31.00585938 32.890625 C28.38907023 32.9708331 26.32566707 32.93703612 23.8125 32.1875 C22.03304413 30.29073205 20.97233317 28.49095302 19.84814453 26.15185547 C17.76745947 22.2053227 13.96096136 20.70952789 10.0625 18.9375 C2.10430037 17.10099239 -3.88642954 17.76254749 -11.05859375 21.76953125 C-15.84724088 24.95903384 -18.77934187 29.63591254 -20.1875 35.1875 C-21.11522699 43.101123 -20.38033513 50.29751946 -16.1875 57.1875 C-12.19729598 61.7450316 -7.69573035 64.78371265 -1.57421875 65.48828125 C7.5029623 65.52769014 13.39030442 63.86332799 20.26953125 57.8828125 C21.99222691 56.18484909 21.99222691 56.18484909 22.90625 53.51171875 C24.8125 51.1875 24.8125 51.1875 26.82885742 50.78710938 C29.40273615 50.69412429 31.92743553 50.75267616 34.5 50.875 C35.39267578 50.89755859 36.28535156 50.92011719 37.20507812 50.94335938 C39.40924272 51.00229426 41.61002672 51.08449182 43.8125 51.1875 C40.88001629 62.95112541 35.32535061 72.06698836 24.734375 78.4375 C22.77898903 79.45250951 20.85727699 80.36725676 18.8125 81.1875 C17.95527344 81.54585937 17.09804687 81.90421875 16.21484375 82.2734375 C11.60263744 83.5125377 7.25464524 83.51682465 2.5 83.5 C1.60087891 83.51611328 0.70175781 83.53222656 -0.22460938 83.54882812 C-11.09552036 83.55668851 -19.90408951 79.99060045 -27.9375 72.6875 C-29.05125 71.45 -29.05125 71.45 -30.1875 70.1875 C-30.868125 69.445 -31.54875 68.7025 -32.25 67.9375 C-39.86372078 57.13092857 -41.83530189 44.26817038 -39.72265625 31.34375 C-37.25010114 22.09727171 -31.90272619 12.98098487 -24.1875 7.1875 C-15.89200993 2.42567323 -9.46826427 0.00722217 0 0 Z " fill="#FAFAFA" transform="translate(1044.1875,1447.8125)"/>
<path d="M0 0 C5.94 0 11.88 0 18 0 C18 10.23 18 20.46 18 31 C28.49876142 31.08190218 28.49876142 31.08190218 37 27 C39.08661733 23.14388043 40.54504119 19.12931166 42 15 C42.46167407 13.71073485 42.92392578 12.42167643 43.38671875 11.1328125 C44.26840276 8.67275527 45.13122463 6.20863756 45.984375 3.73828125 C47 1 47 1 48 0 C49.4887186 -0.08669432 50.981445 -0.10703494 52.47265625 -0.09765625 C53.37177734 -0.09443359 54.27089844 -0.09121094 55.19726562 -0.08789062 C56.61555664 -0.07532227 56.61555664 -0.07532227 58.0625 -0.0625 C59.01189453 -0.05798828 59.96128906 -0.05347656 60.93945312 -0.04882812 C63.29303065 -0.0370011 65.64648477 -0.02052025 68 0 C65.54445507 7.71388356 62.60831367 15.18917157 59.5625 22.6875 C59.08490234 23.88439453 58.60730469 25.08128906 58.11523438 26.31445312 C57.64537109 27.47267578 57.17550781 28.63089844 56.69140625 29.82421875 C56.06020874 31.38789185 56.06020874 31.38789185 55.41625977 32.9831543 C53.8732914 36.26990832 52.08046697 39.03111291 50 42 C51.86277357 45.48461449 53.72858091 48.96758708 55.59692383 52.44921875 C56.53553371 54.19970838 57.47190186 55.95139945 58.40820312 57.703125 C62.04619097 64.47863675 65.7950961 71.15412345 69.73022461 77.76074219 C71 80 71 80 71 81 C63.74 81 56.48 81 49 81 C48.19175781 79.44410156 47.38351562 77.88820313 46.55078125 76.28515625 C45.47141908 74.21090372 44.39198835 72.13668687 43.3125 70.0625 C42.78205078 69.04091797 42.25160156 68.01933594 41.70507812 66.96679688 C40.64677273 64.9345908 39.5727368 62.91049707 38.48291016 60.89501953 C37 58 37 58 35.98193359 55.27294922 C34.95024226 52.4110128 34.95024226 52.4110128 32 49 C25.07 48.505 25.07 48.505 18 48 C18 58.89 18 69.78 18 81 C12.06 81 6.12 81 0 81 C0 54.27 0 27.54 0 0 Z " fill="#FCFCFC" transform="translate(1115,1449)"/>
<path d="M0 0 C5.94 0 11.88 0 18 0 C18 21.12 18 42.24 18 64 C29.55 64 41.1 64 53 64 C53 69.61 53 75.22 53 81 C35.51 81 18.02 81 0 81 C0 54.27 0 27.54 0 0 Z " fill="#FEFEFE" transform="translate(821,1449)"/>
<path d="M0 0 C5.12440321 4.533937 7.6415283 9.24768588 8.30078125 16.1484375 C8.33036642 24.29422003 8.10023605 30.42280455 2.5625 36.8125 C1.716875 37.534375 0.87125 38.25625 0 39 C-0.639375 39.556875 -1.27875 40.11375 -1.9375 40.6875 C-8.10560626 44.61265853 -14.89241205 44.86721513 -22 44 C-29.33427105 41.63639674 -34.23064741 38.00960124 -37.9609375 31.26171875 C-40.95072187 24.63756347 -41.25807777 17.14699709 -39.15625 10.21875 C-36.46383349 4.17900485 -32.90744727 0.03872288 -27 -3 C-17.1010246 -6.56501562 -8.74746765 -5.82189318 0 0 Z " fill="#020202" transform="translate(954,1470)"/>
<path d="M0 0 C2.29041169 2.07915248 3.53609638 3.80116616 4.62573242 6.68945312 C4.90579636 7.42031128 5.18586029 8.15116943 5.47441101 8.9041748 C5.76516006 9.68860962 6.05590912 10.47304443 6.35546875 11.28125 C6.66196854 12.0911438 6.96846832 12.9010376 7.28425598 13.73547363 C7.92932622 15.44539214 8.57040601 17.15682065 9.20776367 18.86962891 C10.18518142 21.49377512 11.17650864 24.11234182 12.16992188 26.73046875 C12.79510177 28.39291692 13.41947825 30.05566749 14.04296875 31.71875 C14.3397905 32.50318481 14.63661224 33.28761963 14.94242859 34.0958252 C16.08761854 37.18876075 17 39.67394816 17 43 C6.44 43 -4.12 43 -15 43 C-13.875 35.125 -13.875 35.125 -12.60131836 31.90063477 C-12.32110336 31.18041641 -12.04088837 30.46019806 -11.75218201 29.71815491 C-11.30057457 28.59116432 -11.30057457 28.59116432 -10.83984375 27.44140625 C-10.53051407 26.65225327 -10.22118439 25.86310028 -9.90248108 25.05003357 C-8.92119574 22.55134776 -7.92954085 20.05693242 -6.9375 17.5625 C-6.26688662 15.86029831 -5.59695764 14.15782682 -4.92773438 12.45507812 C-3.29305623 8.30022275 -1.64907094 4.14916271 0 0 Z " fill="#050505" transform="translate(1274,1309)"/>
</svg>
