<?xml version="1.0" encoding="UTF-8"?>
<svg version="1.1" xmlns="http://www.w3.org/2000/svg" width="2000" height="2000">
<path d="M0 0 C660 0 1320 0 2000 0 C2000 660 2000 1320 2000 2000 C1340 2000 680 2000 0 2000 C0 1340 0 680 0 0 Z " fill="#FEFEFE" transform="translate(0,0)"/>
<path d="M0 0 C1.13407288 0.00248749 2.26814575 0.00497498 3.43658447 0.00753784 C39.04349292 0.12769017 73.24217135 4.29645837 107.91796875 12.40234375 C108.9393972 12.6410746 108.9393972 12.6410746 109.98146057 12.8846283 C117.36486263 14.64624224 124.55469175 16.91088357 131.75 19.3125 C132.80300293 19.66086914 133.85600586 20.00923828 134.94091797 20.36816406 C150.85950748 25.65745014 166.49674817 31.29762062 181.75 38.3125 C183.20237061 38.97306396 183.20237061 38.97306396 184.68408203 39.64697266 C222.47336748 56.92774181 258.44487972 79.88995571 289.16796875 107.9765625 C290.56219497 109.23790483 291.96231127 110.49342668 293.39331055 111.71289062 C299.38464778 116.83520777 304.97057669 122.34694476 310.5402832 127.91748047 C312.17575882 129.55077448 313.81907708 131.1758847 315.46289062 132.80078125 C321.24628397 138.55354233 326.65967204 144.41686302 331.74609375 150.80957031 C333.58739038 153.10939646 335.4863333 155.32806594 337.44140625 157.53125 C353.38998668 175.60111533 366.91040086 196.35816912 378.75 217.3125 C379.20294434 218.11300781 379.65588867 218.91351562 380.12255859 219.73828125 C408.05890181 269.41106801 428.77466016 325.66016086 433.42578125 382.85546875 C433.62445084 386.05767318 433.62445084 386.05767318 434.23583984 388.07275391 C434.95959731 391.22553215 435.12055973 394.38559743 435.30078125 397.60546875 C435.36353996 398.71283638 435.36353996 398.71283638 435.42756653 399.84257507 C435.953505 410.09669451 435.95015711 420.35988222 435.9375 430.625 C435.93623108 431.68585815 435.93496216 432.74671631 435.93365479 433.83972168 C435.85063513 470.32034393 431.93535929 505.94043979 422.75 541.3125 C422.53408203 542.14604004 422.31816406 542.97958008 422.09570312 543.83837891 C407.89934941 597.69193811 383.50832735 648.96688361 349.75 693.3125 C349.24500977 693.97846191 348.74001953 694.64442383 348.21972656 695.33056641 C341.70032294 703.90471646 335.13968905 712.31165277 327.73828125 720.1484375 C327.08214844 720.86257813 326.42601562 721.57671875 325.75 722.3125 C325.22179909 722.81364287 324.69359818 723.31478575 324.14939117 723.83111477 C321.92261299 727.77961366 322.33913369 731.72198044 322.37145996 736.1787262 C322.36692983 737.19214881 322.3623997 738.20557143 322.3577323 739.24970382 C322.3460751 742.65691434 322.35576955 746.06373475 322.36523438 749.47094727 C322.36113026 751.91045892 322.35567033 754.34996862 322.34895325 756.78947449 C322.33720591 762.0528622 322.33441841 767.31614058 322.33930969 772.57953072 C322.34612933 780.21889742 322.33357598 787.85814095 322.31580251 795.49748563 C322.28712645 807.93069138 322.26963699 820.36388384 322.26123047 832.79711914 C322.26072329 833.54140968 322.26021611 834.28570021 322.25969356 835.052545 C322.25617165 840.3266965 322.2530441 845.60084821 322.25 850.875 C322.24653875 856.8597821 322.24288629 862.84456401 322.23876953 868.8293457 C322.23826692 869.56575181 322.2377643 870.30215791 322.23724645 871.06087936 C322.22844638 883.42010715 322.20788802 895.77928988 322.17928743 908.13848728 C322.16225977 915.73776913 322.15545327 923.33692213 322.16259348 930.93622046 C322.16733813 936.79705587 322.1566576 942.65779003 322.14084435 948.51860237 C322.13689606 950.89545909 322.13787145 953.27233094 322.14461708 955.64918137 C322.20837431 980.02172746 319.94962136 1003.70304641 313.75 1027.3125 C313.51861328 1028.19534668 313.28722656 1029.07819336 313.04882812 1029.98779297 C301.32696283 1073.83596414 280.61649094 1114.59360967 249.7890625 1148.08984375 C247.93749705 1150.10812103 246.15167 1152.16599135 244.375 1154.25 C237.38137379 1162.24271567 229.84376815 1169.48411953 221.52734375 1176.0859375 C219.69692326 1177.55336321 217.89592841 1179.0583807 216.12890625 1180.6015625 C202.17799429 1192.75171845 186.17752494 1202.84434438 169.75 1211.3125 C168.85893555 1211.77366211 167.96787109 1212.23482422 167.04980469 1212.70996094 C135.90525873 1228.65040954 103.54300328 1237.82679801 68.75 1241.3125 C67.36095459 1241.4528064 67.36095459 1241.4528064 65.94384766 1241.59594727 C16.49493229 1246.17028074 -38.53626849 1237.37855793 -82.40478516 1213.31005859 C-84.37035545 1212.24743353 -86.35819089 1211.23994989 -88.35546875 1210.23828125 C-109.70893432 1199.43149403 -129.45726646 1185.26251944 -146.74169922 1168.73535156 C-148.22435428 1167.33669282 -149.73114136 1165.97197472 -151.25390625 1164.6171875 C-156.68169852 1159.78756009 -161.58894022 1154.87356116 -166.25 1149.3125 C-167.13844701 1148.30666574 -168.02927849 1147.30293499 -168.921875 1146.30078125 C-191.51197553 1120.76479438 -208.11583276 1090.91352687 -220.171875 1059.15087891 C-221.09819072 1056.71216818 -222.04574168 1054.28331347 -223 1051.85546875 C-233.26142467 1025.08371644 -246.29436237 979.58429908 -234.57421875 951.8671875 C-233.91873047 950.60261719 -233.91873047 950.60261719 -233.25 949.3125 C-232.74082031 948.30445313 -232.23164062 947.29640625 -231.70703125 946.2578125 C-223.16450635 930.58022675 -210.70673895 920.43190988 -193.61328125 915.19921875 C-180.80394339 912.16122254 -165.26689874 912.90845086 -153.25 918.3125 C-152.46109375 918.663125 -151.6721875 919.01375 -150.859375 919.375 C-136.37113626 926.66977755 -125.92932065 939.0611844 -120.171875 954.10546875 C-118.36591251 960.38807553 -117.83397492 966.82816073 -117.25 973.3125 C-113.56295628 1012.04845812 -101.68636666 1048.14930462 -74.4765625 1076.91015625 C-72.25 1079.3125 -72.25 1079.3125 -70.16796875 1081.92578125 C-60.36363045 1094.12629184 -44.8847502 1103.04617581 -31.25 1110.3125 C-29.94289063 1111.01826172 -29.94289063 1111.01826172 -28.609375 1111.73828125 C-18.92330307 1116.78441227 -8.92638332 1120.29730147 1.625 1123 C2.79071533 1123.30357422 2.79071533 1123.30357422 3.97998047 1123.61328125 C16.51981509 1126.6911707 29.11837482 1127.68101766 42 1127.625 C42.67187347 1127.62317719 43.34374695 1127.62135437 44.03598022 1127.61947632 C55.18297911 1127.56883888 65.8807297 1126.83377366 76.75 1124.3125 C77.85891602 1124.06306641 77.85891602 1124.06306641 78.99023438 1123.80859375 C107.9659125 1117.09320054 132.50863349 1101.7100314 153.75 1081.3125 C154.3054248 1080.78116455 154.86084961 1080.2498291 155.43310547 1079.70239258 C166.79276748 1068.6263304 175.61716132 1055.42234573 182.75 1041.3125 C183.23291504 1040.35730469 183.23291504 1040.35730469 183.72558594 1039.3828125 C195.76657542 1015.22688682 201.03208857 989.86911423 201.06884766 962.94384766 C201.07817149 961.35559086 201.0883437 959.76733886 201.09928894 958.17909241 C201.12632665 953.91353864 201.14165944 949.64801738 201.15471697 945.38240099 C201.17046377 940.90743356 201.19721644 936.43253146 201.2227478 931.95761108 C201.26933285 923.50431074 201.30617436 915.05099782 201.33942068 906.59763563 C201.37778628 896.96504731 201.42715808 887.33252494 201.47740483 877.69999242 C201.58042274 857.90421045 201.66978011 838.10838664 201.75 818.3125 C200.75397263 818.85202301 199.75794525 819.39154602 198.73173523 819.94741821 C197.3937485 820.66773438 196.05567521 821.38788975 194.7175293 822.10791016 C193.73840199 822.63911217 193.73840199 822.63911217 192.73949432 823.18104553 C187.13025334 826.19247602 181.39674373 828.77787638 175.47851562 831.13012695 C174.52199097 831.51136215 174.52199097 831.51136215 173.54614258 831.90029907 C172.89154053 832.16007538 172.23693848 832.41985168 171.5625 832.6875 C170.87679932 832.96185883 170.19109863 833.23621765 169.48461914 833.51889038 C164.58399826 835.47847664 159.67060816 837.40372724 154.75 839.3125 C153.53489746 839.7854248 152.31979492 840.25834961 151.06787109 840.74560547 C115.64533024 854.37499121 77.62183609 862.53244539 39.75 865.3125 C38.76225586 865.3957251 37.77451172 865.4789502 36.75683594 865.56469727 C-5.47199736 868.82730045 -47.89793395 866.46862206 -89.25 857.3125 C-90.14460938 857.12075195 -91.03921875 856.92900391 -91.9609375 856.73144531 C-151.47185025 843.90657873 -208.78723025 817.04217812 -257.25 780.3125 C-257.9203125 779.80460937 -258.590625 779.29671875 -259.28125 778.7734375 C-267.69824543 772.37301389 -275.98913513 765.94351593 -283.6953125 758.69140625 C-285.68895703 756.83493909 -287.70807474 755.06157016 -289.77734375 753.29296875 C-295.08896178 748.66208829 -300.06032066 743.68822347 -305.0402832 738.70751953 C-306.67575882 737.07422552 -308.31907708 735.4491153 -309.96289062 733.82421875 C-315.80219037 728.01533575 -321.26753576 722.11110475 -326.38720703 715.64892578 C-328.09123068 713.51163793 -329.85617541 711.46576556 -331.6875 709.4375 C-371.30608031 664.39171691 -397.64948234 608.04582141 -414.45849609 550.98242188 C-415.10571943 548.79919104 -415.77200351 546.6246689 -416.45703125 544.453125 C-421.65142577 527.48338991 -424.29217538 509.75680189 -427 492.25 C-427.10682098 491.5720639 -427.21364197 490.89412781 -427.32369995 490.19564819 C-433.55525458 450.37182671 -432.92103651 407.0549191 -426.25 367.3125 C-426.12884827 366.59052429 -426.00769653 365.86854858 -425.88287354 365.12469482 C-413.73327477 293.7611523 -385.51267813 226.75661865 -341.25 169.3125 C-340.82219238 168.75320801 -340.39438477 168.19391602 -339.95361328 167.61767578 C-334.48225257 160.47555026 -328.87347498 153.591468 -322.734375 147.0078125 C-320.84545571 144.95851327 -319.02838551 142.8865411 -317.21875 140.76953125 C-312.59106075 135.46401138 -307.62101914 130.49747571 -302.64501953 125.5222168 C-301.01172552 123.88674118 -299.3866153 122.24342292 -297.76171875 120.59960938 C-292.00707787 114.81432622 -286.14215907 109.39890187 -279.74633789 104.31201172 C-277.48067536 102.49726589 -275.30187938 100.62390649 -273.13671875 98.69140625 C-268.94197485 94.98840853 -264.54205078 91.59991323 -260.0625 88.25 C-259.20390381 87.60732178 -258.34530762 86.96464355 -257.46069336 86.30249023 C-247.96983461 79.2670978 -238.1714029 72.72150313 -228.25 66.3125 C-227.64671875 65.9201416 -227.0434375 65.5277832 -226.421875 65.12353516 C-176.16367067 32.59903581 -118.88533533 13.43703041 -60.0625 4.125 C-59.10400146 3.97023193 -58.14550293 3.81546387 -57.15795898 3.65600586 C-38.15305686 0.76446826 -19.20039206 -0.06775776 0 0 Z " fill="#000000" transform="translate(997.25,557.6875)"/>
<path d="M0 0 C9.23123665 3.2275227 18.4452733 6.46863398 27.55078125 10.0390625 C28.4741478 10.39838364 29.39751434 10.75770477 30.34886169 11.12791443 C32.31931844 11.89494742 34.28932895 12.66312765 36.25891113 13.43240356 C41.58841549 15.51387169 46.92135796 17.58650171 52.25390625 19.66015625 C53.36309418 20.09172531 54.4722821 20.52329437 55.61508179 20.96794128 C69.79304661 26.48098784 83.9948564 31.93205392 98.19570923 37.38580322 C100.39199153 38.22927361 102.58823642 39.07284145 104.78443909 39.91651917 C106.77505461 40.68114967 108.76579939 41.44544378 110.75669861 42.20933533 C111.6410408 42.54896805 112.525383 42.88860077 113.43652344 43.23852539 C114.20140076 43.53207413 114.96627808 43.82562286 115.7543335 44.12806702 C117.38464511 44.76107395 119.00102176 45.43034564 120.60772705 46.12107849 C126.20487865 48.17747299 131.44343529 45.08595628 136.5625 42.8125 C151.58950431 36.45114455 167.15170962 32.80109874 183.125 29.6875 C183.78381165 29.55826141 184.44262329 29.42902283 185.12139893 29.29586792 C199.94885119 26.41345934 214.19503507 25.79171883 229.25 25.8125 C230.6582756 25.81440338 230.6582756 25.81440338 232.09500122 25.81634521 C266.97365236 25.90633928 303.44673763 29.87361367 334.88037109 46.37646484 C341.20789848 48.23784528 348.40708513 44.07792222 354.2265625 41.79296875 C355.34319778 41.35993942 356.45983307 40.9269101 357.61030579 40.48075867 C360.65158728 39.3003267 363.69088247 38.11494495 366.72941208 36.92745209 C369.90852915 35.68646807 373.09017277 34.45200065 376.27172852 33.21728516 C380.21135754 31.68804749 384.15083556 30.15843074 388.08930969 28.6262207 C401.69002255 23.33578715 415.31294213 18.10370831 428.9375 12.875 C433.176119 11.24827355 437.41436959 9.62059308 441.65234375 7.9921875 C442.5572908 7.64516281 443.46223785 7.29813812 444.39460754 6.94059753 C449.61675886 4.93368014 454.81007438 2.87058993 459.98097229 0.73464966 C462 0 462 0 464 0 C463.99501401 0.82401086 463.99002802 1.64802172 463.98489094 2.4970026 C463.86678003 22.65047692 463.81056162 42.80332178 463.82121754 62.95715427 C463.82491539 72.70396236 463.80851414 82.44992469 463.74291992 92.1965332 C463.68572619 100.70280284 463.66815459 109.20812894 463.6959936 117.71455997 C463.70937654 122.20911312 463.70439656 126.70177222 463.65177345 131.19607735 C463.43064011 151.25002359 463.9007575 167.25597063 474.75423145 184.87362099 C477.53557468 189.62104368 479.17298439 194.8711862 480.9375 200.0625 C481.48603638 201.63475342 481.48603638 201.63475342 482.0456543 203.23876953 C496.17585641 244.15384386 500.48724839 289.25502384 493 332 C492.83902832 332.9792041 492.67805664 333.9584082 492.51220703 334.96728516 C485.41492322 377.58507678 485.41492322 377.58507678 477 386 C476.30253662 385.60321045 475.60507324 385.2064209 474.88647461 384.79760742 C438.44571991 364.13403295 401.04367218 348.21624573 361 336 C360.0915332 335.71688965 359.18306641 335.4337793 358.24707031 335.14208984 C316.84088175 322.29039925 272.81510339 318.55768545 229.6875 318.6875 C228.4495166 318.68899048 227.2115332 318.69048096 225.93603516 318.6920166 C207.09869219 318.73265092 188.66434062 319.3411054 170 322 C168.46980225 322.20085205 168.46980225 322.20085205 166.90869141 322.40576172 C137.35373955 326.31514688 108.21058488 333.44179415 80 343 C79.04593262 343.31904297 78.09186523 343.63808594 77.10888672 343.96679688 C45.58658927 354.60353431 15.66271117 369.2178001 -13 386 C-15.09561563 383.90438437 -15.61439116 382.73161967 -16.5859375 379.9921875 C-16.8749292 379.17911133 -17.1639209 378.36603516 -17.46166992 377.52832031 C-17.76306885 376.65272461 -18.06446777 375.77712891 -18.375 374.875 C-18.68735596 373.9684668 -18.99971191 373.06193359 -19.3215332 372.12792969 C-24.34805262 357.28462177 -27.23902202 342.26532558 -29.57714844 326.79199219 C-29.83204047 325.1089984 -30.09364149 323.4269737 -30.36816406 321.74707031 C-38.23130779 273.18335577 -29.93652606 210.5260408 -2.96302795 168.85295105 C0.24886657 162.36610366 -0.42882545 155.10222104 -0.45410156 148.03710938 C-0.44535798 146.42017628 -0.43486946 144.80325183 -0.42277527 143.18634033 C-0.39499066 138.81498336 -0.39150891 134.44390978 -0.39249516 130.07247734 C-0.38935956 125.49735085 -0.36372789 120.92235078 -0.34051514 116.34729004 C-0.30000112 107.6918957 -0.27962524 99.03657662 -0.26654124 90.38110209 C-0.25065561 80.52372112 -0.21223339 70.66646793 -0.17194796 60.80916119 C-0.08961196 40.53948297 -0.0354805 20.26981084 0 0 Z " fill="#000000" transform="translate(768,200)"/>
<path d="M0 0 C18.86834268 15.44039843 31.82963284 33.02179167 39.328125 56.30859375 C39.5353418 56.94587402 39.74255859 57.5831543 39.95605469 58.23974609 C46.25530959 78.87432053 44.43861767 105.2554606 36.515625 125.05859375 C36.09071777 126.1244873 36.09071777 126.1244873 35.65722656 127.21191406 C29.44784486 142.31216303 20.51052038 155.78257722 7.765625 166.12109375 C5.18956165 169.48428757 5.28582225 169.9350352 5.74755859 173.92895508 C5.91635529 175.40448349 5.91635529 175.40448349 6.08856201 176.90982056 C6.82134061 182.31266198 7.66018941 187.69200062 8.5546875 193.0703125 C8.75604813 194.29906601 8.95740875 195.52781952 9.16487122 196.79380798 C9.70691544 200.09431473 10.25260472 203.39417341 10.80036545 206.69373322 C11.14394861 208.76614095 11.48594844 210.83880392 11.8274231 212.91156006 C14.5771261 229.60114472 17.38788589 246.27823279 20.35333252 262.93099976 C23.40841178 280.11244108 26.20539495 297.3358456 29.015625 314.55859375 C32.04771933 333.1407959 35.09841432 351.71611887 38.40707397 370.25152588 C41.96059815 390.19580057 45.17772563 410.19764944 48.42724323 430.19325829 C48.89326295 433.05942004 49.36054915 435.92537465 49.82796288 438.79130936 C50.15024703 440.77115717 50.47045828 442.75134208 50.79060364 444.73153687 C51.77750624 450.78542735 52.81354279 456.80012106 54.16093445 462.78530884 C54.515625 465.05859375 54.515625 465.05859375 54.515625 471.05859375 C-24.024375 471.05859375 -102.564375 471.05859375 -183.484375 471.05859375 C-182.36146714 457.58369941 -182.36146714 457.58369941 -181.2421875 451.4921875 C-180.9836976 450.05729642 -180.72523568 448.62240029 -180.46679688 447.1875 C-180.2588147 446.05078857 -180.2588147 446.05078857 -180.04663086 444.89111328 C-176.57744454 425.88903744 -173.45057989 406.83171277 -170.34441376 387.76787186 C-167.19438367 368.43858475 -164.02645067 349.11594664 -160.58789062 329.83544922 C-157.41939007 312.03388573 -154.53392958 294.18579086 -151.62255096 276.34083557 C-148.70838195 258.48050767 -145.7690204 240.62754785 -142.609375 222.80859375 C-140.6400133 211.69184049 -138.69840723 200.57260218 -136.88250732 189.42956543 C-136.55895332 187.44517149 -136.2319362 185.46134316 -135.90478516 183.47753906 C-135.71577637 182.30416992 -135.52676758 181.13080078 -135.33203125 179.921875 C-135.16711182 178.90391846 -135.00219238 177.88596191 -134.83227539 176.8371582 C-133.98771847 171.86369097 -133.98771847 171.86369097 -135.65844727 167.36450195 C-136.20041748 166.86781006 -136.7423877 166.37111816 -137.30078125 165.859375 C-137.89705322 165.29500732 -138.4933252 164.73063965 -139.10766602 164.14916992 C-140.06757446 163.26902222 -140.06757446 163.26902222 -141.046875 162.37109375 C-146.64687422 157.00960132 -151.46181505 151.73627117 -155.484375 145.05859375 C-155.92910156 144.32382812 -156.37382813 143.5890625 -156.83203125 142.83203125 C-158.11898288 140.6044636 -159.31376572 138.34925443 -160.484375 136.05859375 C-160.88269531 135.30964844 -161.28101563 134.56070313 -161.69140625 133.7890625 C-163.1123839 130.924552 -164.31650146 128.0363298 -165.484375 125.05859375 C-165.74959961 124.38441406 -166.01482422 123.71023438 -166.28808594 123.015625 C-175.23696305 99.30368703 -174.5662289 69.25121991 -164.57958984 45.94726562 C-158.17715097 31.97475002 -150.28574294 20.01039857 -139.484375 9.05859375 C-138.31261719 7.8675 -138.31261719 7.8675 -137.1171875 6.65234375 C-100.63379774 -28.23412996 -39.83695245 -30.59334822 0 0 Z " fill="#FEFEFE" transform="translate(1064.484375,743.94140625)"/>
</svg>
