<?xml version="1.0" encoding="UTF-8"?>
<svg version="1.1" xmlns="http://www.w3.org/2000/svg" width="2000" height="2000">
<path d="M0 0 C660 0 1320 0 2000 0 C2000 660 2000 1320 2000 2000 C1340 2000 680 2000 0 2000 C0 1340 0 680 0 0 Z " fill="#000000" transform="translate(0,0)"/>
<path d="M0 0 C1.13407288 0.00248749 2.26814575 0.00497498 3.43658447 0.00753784 C39.04349292 0.12769017 73.24217135 4.29645837 107.91796875 12.40234375 C108.9393972 12.6410746 108.9393972 12.6410746 109.98146057 12.8846283 C117.36486263 14.64624224 124.55469175 16.91088357 131.75 19.3125 C132.80300293 19.66086914 133.85600586 20.00923828 134.94091797 20.36816406 C150.85950748 25.65745014 166.49674817 31.29762062 181.75 38.3125 C183.20237061 38.97306396 183.20237061 38.97306396 184.68408203 39.64697266 C222.47336748 56.92774181 258.44487972 79.88995571 289.16796875 107.9765625 C290.55606169 109.23235612 291.94990376 110.48253377 293.37573242 111.6953125 C299.53143841 116.9516171 305.24778941 122.62417085 310.9675293 128.34472656 C312.67543056 130.05044598 314.39118045 131.74799027 316.10742188 133.4453125 C322.78786805 140.09202545 328.90365251 146.91143006 334.75 154.3125 C336.30925805 156.14859142 337.87103933 157.98254964 339.4375 159.8125 C350.60060495 173.21169274 360.55311103 187.50748423 369.75 202.3125 C370.12930664 202.9194873 370.50861328 203.52647461 370.89941406 204.15185547 C390.71386288 236.00336372 407.03346943 270.31406525 417.75 306.3125 C418.150979 307.65755615 418.150979 307.65755615 418.56005859 309.02978516 C425.57256229 332.95691075 431.56327464 358.07829735 433.4609375 382.99609375 C433.62861433 386.07937738 433.62861433 386.07937738 434.23364258 388.06396484 C434.95838442 391.21993284 435.12037535 394.38230312 435.30078125 397.60546875 C435.36353996 398.71283638 435.36353996 398.71283638 435.42756653 399.84257507 C435.953505 410.09669451 435.95015711 420.35988222 435.9375 430.625 C435.93623108 431.68585815 435.93496216 432.74671631 435.93365479 433.83972168 C435.8674689 462.92322151 433.14988454 490.75723557 427.75 519.3125 C427.51796875 520.54419922 427.2859375 521.77589844 427.046875 523.04492188 C414.21827842 589.31357338 382.96292591 653.70709591 340.09765625 705.67675781 C338.80665794 707.2437304 337.52802959 708.82086972 336.25 710.3984375 C330.11713486 717.96092323 330.11713486 717.96092323 328.03114963 719.95851058 C323.59139955 724.41423016 321.94596423 727.52170492 321.83424401 733.81489879 C321.85278931 734.7536978 321.87133461 735.6924968 321.89044189 736.65974426 C321.88249407 737.67658458 321.87454624 738.6934249 321.86635756 739.74107856 C321.84819323 743.13654964 321.87974724 746.52970176 321.91113281 749.92504883 C321.90815468 752.36515351 321.90205797 754.80525608 321.89308167 757.24534607 C321.88045025 762.4979013 321.88896092 767.74997089 321.91638947 773.00245094 C321.95588754 780.62590915 321.95357363 788.24892461 321.94083425 795.87245389 C321.92094612 808.28133831 321.93002053 820.69001738 321.95947266 833.09887695 C321.98781226 845.08227713 322.0102204 857.06564006 322.01904297 869.04907227 C322.01959125 869.78442748 322.02013953 870.51978269 322.02070442 871.27742139 C322.02636144 879.33884104 322.0282005 887.40025195 322.02430344 895.46167278 C322.02395988 896.17451649 322.02361633 896.88736019 322.02326237 897.62180522 C322.02180203 900.47545196 322.02024694 903.32909846 322.01815495 906.18274482 C322.01209355 914.47312859 322.01748513 922.76329111 322.04517952 931.05363443 C322.06420049 936.8996924 322.06833604 942.74569036 322.06767082 948.59177589 C322.07002083 950.96220008 322.07743439 953.33262662 322.09078407 955.70301437 C322.22311226 980.06475706 319.94322631 1003.71473165 313.75 1027.3125 C313.52441406 1028.17721924 313.29882812 1029.04193848 313.06640625 1029.93286133 C301.35593204 1073.87483331 280.67630737 1114.52861479 249.7890625 1148.08984375 C247.93749705 1150.10812103 246.15167 1152.16599135 244.375 1154.25 C237.38137379 1162.24271567 229.84376815 1169.48411953 221.52734375 1176.0859375 C219.69692326 1177.55336321 217.89592841 1179.0583807 216.12890625 1180.6015625 C202.17799429 1192.75171845 186.17752494 1202.84434438 169.75 1211.3125 C168.85893555 1211.77366211 167.96787109 1212.23482422 167.04980469 1212.70996094 C135.90525873 1228.65040954 103.54300328 1237.82679801 68.75 1241.3125 C67.36095459 1241.4528064 67.36095459 1241.4528064 65.94384766 1241.59594727 C16.49493229 1246.17028074 -38.53626849 1237.37855793 -82.40478516 1213.31005859 C-84.37035545 1212.24743353 -86.35819089 1211.23994989 -88.35546875 1210.23828125 C-109.70893432 1199.43149403 -129.45726646 1185.26251944 -146.74169922 1168.73535156 C-148.22435428 1167.33669282 -149.73114136 1165.97197472 -151.25390625 1164.6171875 C-156.68169852 1159.78756009 -161.58894022 1154.87356116 -166.25 1149.3125 C-167.13844701 1148.30666574 -168.02927849 1147.30293499 -168.921875 1146.30078125 C-191.51197553 1120.76479438 -208.11583276 1090.91352687 -220.171875 1059.15087891 C-221.09819072 1056.71216818 -222.04574168 1054.28331347 -223 1051.85546875 C-233.28401625 1025.02477569 -246.28879063 979.55499987 -234.50390625 951.796875 C-234.09011719 950.97703125 -233.67632813 950.1571875 -233.25 949.3125 C-232.61384766 947.92804688 -232.61384766 947.92804688 -231.96484375 946.515625 C-224.70483351 931.87426731 -212.47081854 921.91023905 -197.25 916.3125 C-183.47182062 912.09468998 -166.45199155 912.37550972 -153.25 918.3125 C-152.46109375 918.663125 -151.6721875 919.01375 -150.859375 919.375 C-136.37113626 926.66977755 -125.92932065 939.0611844 -120.171875 954.10546875 C-118.36591251 960.38807553 -117.83397492 966.82816073 -117.25 973.3125 C-113.56295628 1012.04845812 -101.68636666 1048.14930462 -74.4765625 1076.91015625 C-72.25 1079.3125 -72.25 1079.3125 -70.16796875 1081.92578125 C-60.36363045 1094.12629184 -44.8847502 1103.04617581 -31.25 1110.3125 C-29.94289063 1111.01826172 -29.94289063 1111.01826172 -28.609375 1111.73828125 C-18.92330307 1116.78441227 -8.92638332 1120.29730147 1.625 1123 C2.79071533 1123.30357422 2.79071533 1123.30357422 3.97998047 1123.61328125 C16.51981509 1126.6911707 29.11837482 1127.68101766 42 1127.625 C42.67187347 1127.62317719 43.34374695 1127.62135437 44.03598022 1127.61947632 C55.18297911 1127.56883888 65.8807297 1126.83377366 76.75 1124.3125 C77.85891602 1124.06306641 77.85891602 1124.06306641 78.99023438 1123.80859375 C107.9659125 1117.09320054 132.50863349 1101.7100314 153.75 1081.3125 C154.3054248 1080.78116455 154.86084961 1080.2498291 155.43310547 1079.70239258 C166.79276748 1068.6263304 175.61716132 1055.42234573 182.75 1041.3125 C183.23291504 1040.35730469 183.23291504 1040.35730469 183.72558594 1039.3828125 C191.11858723 1024.55140766 195.82054626 1009.5803155 198.75 993.3125 C198.91950354 992.40471959 199.08900707 991.49693918 199.26364708 990.56165028 C200.7917715 981.68014166 201.05669282 972.94855317 201.06884766 963.96557617 C201.07816877 962.3676148 201.0883406 960.7696582 201.09928894 959.17170715 C201.1263573 954.87510339 201.14166879 950.57853197 201.15471697 946.28186584 C201.17045001 941.7761962 201.19720725 937.27059166 201.2227478 932.76496887 C201.26935679 924.25142796 201.30618688 915.73787456 201.33942068 907.22427207 C201.37776914 897.52399378 201.42714557 887.82378116 201.47740483 878.1235584 C201.58045843 858.18658755 201.66980444 838.24957505 201.75 818.3125 C200.75397263 818.85202301 199.75794525 819.39154602 198.73173523 819.94741821 C197.3937485 820.66773438 196.05567521 821.38788975 194.7175293 822.10791016 C193.73840199 822.63911217 193.73840199 822.63911217 192.73949432 823.18104553 C187.13025334 826.19247602 181.39674373 828.77787638 175.47851562 831.13012695 C174.52199097 831.51136215 174.52199097 831.51136215 173.54614258 831.90029907 C172.89154053 832.16007538 172.23693848 832.41985168 171.5625 832.6875 C170.87679932 832.96185883 170.19109863 833.23621765 169.48461914 833.51889038 C164.58399826 835.47847664 159.67060816 837.40372724 154.75 839.3125 C153.53489746 839.7854248 152.31979492 840.25834961 151.06787109 840.74560547 C115.64533024 854.37499121 77.62183609 862.53244539 39.75 865.3125 C38.76225586 865.3957251 37.77451172 865.4789502 36.75683594 865.56469727 C-5.47199736 868.82730045 -47.89793395 866.46862206 -89.25 857.3125 C-90.14460938 857.12075195 -91.03921875 856.92900391 -91.9609375 856.73144531 C-151.47185025 843.90657873 -208.78723025 817.04217812 -257.25 780.3125 C-257.9203125 779.80460937 -258.590625 779.29671875 -259.28125 778.7734375 C-267.69824543 772.37301389 -275.98913513 765.94351593 -283.6953125 758.69140625 C-285.67866152 756.8445262 -287.68655825 755.0823129 -289.74609375 753.32421875 C-295.22087527 748.55108584 -300.33424635 743.41428856 -305.4675293 738.28027344 C-307.17543056 736.57455402 -308.89118045 734.87700973 -310.60742188 733.1796875 C-317.28783837 726.53306534 -323.40504552 719.71461644 -329.25 712.3125 C-330.13698643 711.24996573 -331.02900298 710.19157286 -331.9296875 709.140625 C-338.45078368 701.48239817 -344.40555807 693.49294564 -350.25 685.3125 C-351.35794922 683.77529297 -351.35794922 683.77529297 -352.48828125 682.20703125 C-375.94335668 649.0611934 -393.99229747 612.63076071 -407.25 574.3125 C-407.83974609 572.62302246 -407.83974609 572.62302246 -408.44140625 570.89941406 C-417.32282266 545.2151199 -423.13040959 519.17448871 -426.82666016 492.26074219 C-427.11500775 490.25261906 -427.42821712 488.2479452 -427.76318359 486.24707031 C-434.13742555 448.02511809 -432.68846485 405.47513189 -426.25 367.3125 C-426.11660217 366.51986755 -425.98320435 365.72723511 -425.84576416 364.9105835 C-421.91890169 341.87625851 -416.67939004 319.47845503 -409.25 297.3125 C-408.89325195 296.23548828 -408.53650391 295.15847656 -408.16894531 294.04882812 C-393.1079791 249.04506268 -370.20053696 206.86995335 -341.25 169.3125 C-340.816875 168.74789062 -340.38375 168.18328125 -339.9375 167.6015625 C-334.69239665 160.7769678 -329.36039853 154.11706534 -323.515625 147.7890625 C-322.28393394 146.44269676 -321.05945983 145.08888276 -319.87597656 143.69995117 C-314.61653911 137.539517 -308.94230065 131.81868153 -303.21777344 126.0949707 C-301.51205402 124.38706944 -299.81450973 122.67131955 -298.1171875 120.95507812 C-292.23775629 115.04563674 -286.2659044 109.48693303 -279.72875977 104.29443359 C-277.4677929 102.48663993 -275.29579149 100.61870206 -273.13671875 98.69140625 C-268.94197485 94.98840853 -264.54205078 91.59991323 -260.0625 88.25 C-259.20390381 87.60732178 -258.34530762 86.96464355 -257.46069336 86.30249023 C-247.96983461 79.2670978 -238.1714029 72.72150313 -228.25 66.3125 C-227.64671875 65.9201416 -227.0434375 65.5277832 -226.421875 65.12353516 C-192.83043155 43.38489775 -155.55674092 27.54782369 -117.25 16.3125 C-116.12150635 15.97726318 -116.12150635 15.97726318 -114.97021484 15.63525391 C-77.81321252 4.75021564 -38.62523531 -0.13630761 0 0 Z " fill="#FEFEFE" transform="translate(997.25,557.6875)"/>
<path d="M0 0 C9.23123665 3.2275227 18.4452733 6.46863398 27.55078125 10.0390625 C28.4741478 10.39838364 29.39751434 10.75770477 30.34886169 11.12791443 C32.31931844 11.89494742 34.28932895 12.66312765 36.25891113 13.43240356 C41.58841549 15.51387169 46.92135796 17.58650171 52.25390625 19.66015625 C53.36309418 20.09172531 54.4722821 20.52329437 55.61508179 20.96794128 C69.79304661 26.48098784 83.9948564 31.93205392 98.19570923 37.38580322 C100.39199153 38.22927361 102.58823642 39.07284145 104.78443909 39.91651917 C106.77505461 40.68114967 108.76579939 41.44544378 110.75669861 42.20933533 C111.6410408 42.54896805 112.525383 42.88860077 113.43652344 43.23852539 C114.20140076 43.53207413 114.96627808 43.82562286 115.7543335 44.12806702 C117.38464511 44.76107395 119.00102176 45.43034564 120.60772705 46.12107849 C126.20487865 48.17747299 131.44343529 45.08595628 136.5625 42.8125 C151.58950431 36.45114455 167.15170962 32.80109874 183.125 29.6875 C183.78381165 29.55826141 184.44262329 29.42902283 185.12139893 29.29586792 C199.94885119 26.41345934 214.19503507 25.79171883 229.25 25.8125 C230.6582756 25.81440338 230.6582756 25.81440338 232.09500122 25.81634521 C266.97365236 25.90633928 303.44673763 29.87361367 334.88037109 46.37646484 C341.20789848 48.23784528 348.40708513 44.07792222 354.2265625 41.79296875 C355.34319778 41.35993942 356.45983307 40.9269101 357.61030579 40.48075867 C360.65158728 39.3003267 363.69088247 38.11494495 366.72941208 36.92745209 C369.90852915 35.68646807 373.09017277 34.45200065 376.27172852 33.21728516 C380.21135754 31.68804749 384.15083556 30.15843074 388.08930969 28.6262207 C401.69002255 23.33578715 415.31294213 18.10370831 428.9375 12.875 C433.176119 11.24827355 437.41436959 9.62059308 441.65234375 7.9921875 C442.5572908 7.64516281 443.46223785 7.29813812 444.39460754 6.94059753 C449.61675886 4.93368014 454.81007438 2.87058993 459.98097229 0.73464966 C462 0 462 0 464 0 C463.99501401 0.82401086 463.99002802 1.64802172 463.98489094 2.4970026 C463.86678003 22.65047692 463.81056162 42.80332178 463.82121754 62.95715427 C463.82491539 72.70396236 463.80851414 82.44992469 463.74291992 92.1965332 C463.68572619 100.70280284 463.66815459 109.20812894 463.6959936 117.71455997 C463.70937654 122.20911312 463.70439656 126.70177222 463.65177345 131.19607735 C463.43064022 151.25001307 463.90074564 167.25597959 474.7542305 184.87361526 C477.53551167 189.62094117 479.1734282 194.87113927 480.9375 200.0625 C481.30391602 201.11501953 481.67033203 202.16753906 482.04785156 203.25195312 C483.05114614 206.16195731 484.03182435 209.07815522 485 212 C485.22768066 212.67788574 485.45536133 213.35577148 485.68994141 214.05419922 C497.87105873 250.92593851 499.6826579 293.84846049 493 332 C492.83902832 332.9792041 492.67805664 333.9584082 492.51220703 334.96728516 C485.41492322 377.58507678 485.41492322 377.58507678 477 386 C476.30253662 385.60321045 475.60507324 385.2064209 474.88647461 384.79760742 C438.44571991 364.13403295 401.04367218 348.21624573 361 336 C360.0915332 335.71688965 359.18306641 335.4337793 358.24707031 335.14208984 C343.46234218 330.55319243 328.19455218 327.85102668 313 325 C312.1332666 324.83226074 311.2665332 324.66452148 310.37353516 324.49169922 C304.93737562 323.45003288 299.49541602 322.65854159 294 322 C292.88367187 321.86464844 291.76734375 321.72929688 290.6171875 321.58984375 C269.84069997 319.20248338 249.15461907 318.72774075 228.25 318.75 C227.01707214 318.75077545 225.78414429 318.7515509 224.51385498 318.75234985 C206.96523259 318.78435315 189.62572656 319.04449517 172.24023438 321.66552734 C170.65662036 321.90196492 169.07184922 322.13071277 167.48632812 322.35400391 C137.6811187 326.56374903 108.5059415 333.34172251 80 343 C79.04593262 343.31904297 78.09186523 343.63808594 77.10888672 343.96679688 C45.58658927 354.60353431 15.66271117 369.2178001 -13 386 C-15.09561563 383.90438437 -15.61439116 382.73161967 -16.5859375 379.9921875 C-16.8749292 379.17878906 -17.1639209 378.36539062 -17.46166992 377.52734375 C-17.76306885 376.65207031 -18.06446777 375.77679687 -18.375 374.875 C-18.84353394 373.51955078 -18.84353394 373.51955078 -19.3215332 372.13671875 C-22.02091268 364.18508001 -24.20090137 356.19992143 -26 348 C-26.25692627 346.87223145 -26.25692627 346.87223145 -26.51904297 345.72167969 C-33.88572677 313.14827059 -34.66648279 277.92010741 -29 245 C-28.8443457 244.07606445 -28.68869141 243.15212891 -28.52832031 242.20019531 C-24.26889063 217.94440114 -16.46483493 189.70463342 -2.96401978 168.85592651 C0.24807744 162.36740081 -0.4288198 155.10380018 -0.45410156 148.03710938 C-0.44535798 146.42017628 -0.43486946 144.80325183 -0.42277527 143.18634033 C-0.39499066 138.81498336 -0.39150891 134.44390978 -0.39249516 130.07247734 C-0.38935956 125.49735085 -0.36372789 120.92235078 -0.34051514 116.34729004 C-0.30000112 107.6918957 -0.27962524 99.03657662 -0.26654124 90.38110209 C-0.25065561 80.52372112 -0.21223339 70.66646793 -0.17194796 60.80916119 C-0.08961196 40.53948297 -0.0354805 20.26981084 0 0 Z " fill="#FEFEFE" transform="translate(768,200)"/>
<path d="M0 0 C18.86834268 15.44039843 31.82963284 33.02179167 39.328125 56.30859375 C39.5353418 56.94587402 39.74255859 57.5831543 39.95605469 58.23974609 C42.7697604 67.45664886 42.69780112 76.80409016 42.703125 86.37109375 C42.71537109 87.51771484 42.72761719 88.66433594 42.74023438 89.84570312 C42.75837399 100.52993474 41.39230675 110.61732004 37.953125 120.74609375 C37.69700439 121.50156494 37.44088379 122.25703613 37.17700195 123.03540039 C32.15898128 137.19554019 24.85973109 150.7522759 13.46875 160.78515625 C12.95747559 161.24937988 12.44620117 161.71360352 11.91943359 162.19189453 C10.47684771 163.48151378 8.9933197 164.7249082 7.5078125 165.96484375 C5.28562687 169.41576732 5.32649057 170.04934652 5.76367188 173.9387207 C5.87387665 174.9209964 5.98408142 175.90327209 6.09762573 176.91531372 C6.81609842 182.31810032 7.66052653 187.69402758 8.5546875 193.0703125 C8.75604813 194.29906601 8.95740875 195.52781952 9.16487122 196.79380798 C9.70691544 200.09431473 10.25260472 203.39417341 10.80036545 206.69373322 C11.14394861 208.76614095 11.48594844 210.83880392 11.8274231 212.91156006 C14.5771261 229.60114472 17.38788589 246.27823279 20.35333252 262.93099976 C23.40841178 280.11244108 26.20539495 297.3358456 29.015625 314.55859375 C32.04771933 333.1407959 35.09841432 351.71611887 38.40707397 370.25152588 C41.96059815 390.19580057 45.17772563 410.19764944 48.42724323 430.19325829 C48.89326295 433.05942004 49.36054915 435.92537465 49.82796288 438.79130936 C50.15024703 440.77115717 50.47045828 442.75134208 50.79060364 444.73153687 C51.77750624 450.78542735 52.81354279 456.80012106 54.16093445 462.78530884 C54.515625 465.05859375 54.515625 465.05859375 54.515625 471.05859375 C-24.024375 471.05859375 -102.564375 471.05859375 -183.484375 471.05859375 C-182.36146714 457.58369941 -182.36146714 457.58369941 -181.2421875 451.4921875 C-180.9836976 450.05729642 -180.72523568 448.62240029 -180.46679688 447.1875 C-180.2588147 446.05078857 -180.2588147 446.05078857 -180.04663086 444.89111328 C-176.57744454 425.88903744 -173.45057989 406.83171277 -170.34441376 387.76787186 C-167.19438367 368.43858475 -164.02645067 349.11594664 -160.58789062 329.83544922 C-157.41939007 312.03388573 -154.53392958 294.18579086 -151.62255096 276.34083557 C-148.70838195 258.48050767 -145.7690204 240.62754785 -142.609375 222.80859375 C-140.6400133 211.69184049 -138.69840723 200.57260218 -136.88250732 189.42956543 C-136.55895332 187.44517149 -136.2319362 185.46134316 -135.90478516 183.47753906 C-135.71577637 182.30416992 -135.52676758 181.13080078 -135.33203125 179.921875 C-135.16711182 178.90391846 -135.00219238 177.88596191 -134.83227539 176.8371582 C-133.98771847 171.86369097 -133.98771847 171.86369097 -135.65844727 167.36450195 C-136.20041748 166.86781006 -136.7423877 166.37111816 -137.30078125 165.859375 C-137.89673096 165.29565186 -138.49268066 164.73192871 -139.10668945 164.15112305 C-140.0670813 163.27000854 -140.0670813 163.27000854 -141.046875 162.37109375 C-146.64995468 156.98042662 -151.51826436 151.80098185 -155.484375 145.05859375 C-155.83306641 144.47303711 -156.18175781 143.88748047 -156.54101562 143.28417969 C-164.70818307 129.37773359 -171.60200811 113.46017196 -171.6171875 97.10546875 C-171.61814423 96.44581116 -171.61910095 95.78615356 -171.62008667 95.10650635 C-171.62076463 93.71472071 -171.61893723 92.32293184 -171.61474609 90.93115234 C-171.60942671 88.82902693 -171.61468635 86.72711853 -171.62109375 84.625 C-171.64138835 55.22291934 -160.08508021 29.94621686 -139.484375 9.05859375 C-138.31261719 7.8675 -138.31261719 7.8675 -137.1171875 6.65234375 C-100.63379774 -28.23412996 -39.83695245 -30.59334822 0 0 Z " fill="#000000" transform="translate(1064.484375,743.94140625)"/>
</svg>
